<svg width="66" height="97" viewBox="0 0 66 97" fill="none" xmlns="http://www.w3.org/2000/svg">
<g clip-path="url(#clip0_65_3741)">
<path fill-rule="evenodd" clip-rule="evenodd" d="M32.0649 81.8035V44.3398L16.5215 52.5737L30.1734 83.1831L28.4709 83.9459L14.1057 51.7352L32.0649 42.2299V41.2345L32.9999 41.7322L33.9349 41.2345V42.2299L51.8941 51.7352L37.5343 83.9459L35.8319 83.1831L49.4837 52.5737L33.9349 44.3398V81.8035H32.0649Z" fill="#575756"/>
<path fill-rule="evenodd" clip-rule="evenodd" d="M33 0C14.7759 0 -6.10352e-05 13.8765 -6.10352e-05 31.0043C-6.10352e-05 48.1321 19.213 65.2708 33 65.2708C46.7869 65.2708 66 48.1267 66 31.0043C66 13.8819 51.224 0 33 0Z" fill="#A61C14"/>
<path fill-rule="evenodd" clip-rule="evenodd" d="M33 0C19.4887 0 8.53369 13.8765 8.53369 31.0043C8.53369 48.1321 22.78 65.2708 33 65.2708C43.2199 65.2708 57.4662 48.1267 57.4662 31.0043C57.4662 13.8819 46.5113 0 33 0Z" fill="#D5BAA9"/>
<path fill-rule="evenodd" clip-rule="evenodd" d="M33 0C25.2931 0 19.0453 13.8765 19.0453 31.0043C19.0453 48.1321 27.1523 65.2708 33 65.2708C38.8477 65.2708 46.9544 48.1267 46.9544 31.0043C46.9544 13.8819 40.7068 0 33 0Z" fill="#A61C14"/>
<path fill-rule="evenodd" clip-rule="evenodd" d="M33 0C14.7759 0 -6.10352e-05 13.8765 -6.10352e-05 31.0043C-6.10352e-05 37.3934 2.67529 43.7825 6.73949 49.2844C11.8373 51.8677 17.4715 53.2114 23.1853 53.2066C43.6954 53.2066 60.3253 36.2032 60.3253 15.2289C60.3253 14.688 60.3252 14.1145 60.282 13.5627C54.3478 5.37206 44.3387 0 33 0Z" fill="#C32E17"/>
<path fill-rule="evenodd" clip-rule="evenodd" d="M33 0C19.4887 0 8.53369 13.8765 8.53369 31.0043C8.53369 38.6269 11.3602 46.2495 15.392 52.3627C17.9517 52.9246 20.5647 53.2076 23.1853 53.2066C38.6098 53.2066 51.8293 43.5932 57.4446 29.9115C56.9906 13.2922 46.2194 0 33 0Z" fill="#E6DFD3"/>
<path fill-rule="evenodd" clip-rule="evenodd" d="M33 0C25.2931 0 19.0453 13.8765 19.0453 31.0043C19.0947 38.5941 20.5289 46.1111 23.2771 53.185C31.1244 53.1745 38.7591 50.6303 45.0467 45.9303C46.2882 41.0514 46.9288 36.0389 46.9544 31.0043C46.9544 13.8765 40.7068 0 33 0Z" fill="#C32E17"/>
<path fill-rule="evenodd" clip-rule="evenodd" d="M20.8126 81.8035H45.1871V91.9417C45.1828 93.282 44.6491 94.5661 43.7024 95.5138C42.7557 96.4614 41.4727 96.9957 40.1338 97H25.8606C24.5222 96.9957 23.24 96.4613 22.2941 95.5134C21.3482 94.5656 20.8155 93.2815 20.8126 91.9417V81.8035Z" fill="#E5AC42"/>
<path fill-rule="evenodd" clip-rule="evenodd" d="M45.9006 81.8035H20.121C19.8891 81.8006 19.659 81.8436 19.4438 81.9299C19.2286 82.0163 19.0326 82.1443 18.867 82.3066C18.7013 82.4689 18.5691 82.6624 18.4782 82.8759C18.3874 83.0895 18.3397 83.3188 18.3376 83.5509C18.339 84.0168 18.5244 84.4631 18.8535 84.7926C19.1826 85.122 19.6286 85.3077 20.0941 85.3091H45.9006C46.1334 85.312 46.3643 85.2686 46.5802 85.1816C46.7961 85.0946 46.9925 84.9657 47.1583 84.8022C47.3242 84.6387 47.4561 84.4439 47.5463 84.2292C47.6365 84.0144 47.6833 83.7839 47.684 83.5509C47.6819 83.3188 47.6339 83.0895 47.5431 82.8759C47.4523 82.6624 47.3203 82.4689 47.1547 82.3066C46.989 82.1443 46.793 82.0163 46.5778 81.9299C46.3626 81.8436 46.1325 81.8006 45.9006 81.8035Z" fill="#E5AC42"/>
<path fill-rule="evenodd" clip-rule="evenodd" d="M39.0368 88.4902C39.0339 89.8299 38.5014 91.114 37.5555 92.0619C36.6097 93.0097 35.3274 93.5442 33.989 93.5484H21.0884C21.4265 94.5512 22.0693 95.423 22.9269 96.0419C23.7846 96.6608 24.8142 96.9958 25.8714 97H40.1177C41.4566 96.9957 42.7393 96.4614 43.686 95.5137C44.6328 94.566 45.1667 93.2819 45.1709 91.9417V85.3199H39.0368V88.4902Z" fill="#C96336"/>
<path fill-rule="evenodd" clip-rule="evenodd" d="M46.1004 82.166C46.1003 82.4813 46.0154 82.7909 45.8547 83.0622C45.694 83.3334 45.4634 83.5564 45.1871 83.7078C44.929 83.8507 44.6388 83.9252 44.3439 83.9242H18.4022C18.4851 84.3194 18.7011 84.6742 19.0139 84.9292C19.3267 85.1842 19.7175 85.3241 20.121 85.3254H45.9275C46.384 85.3324 46.8252 85.1613 47.1578 84.8483C47.4904 84.5353 47.6883 84.105 47.7093 83.6485C47.7304 83.1921 47.5731 82.7453 47.2707 82.4029C46.9684 82.0606 46.5447 81.8494 46.0896 81.8143C46.1066 81.9307 46.1102 82.0487 46.1004 82.166Z" fill="#C96336"/>
</g>
<defs>
<clipPath id="clip0_65_3741">
<rect width="66" height="97" fill="white"/>
</clipPath>
</defs>
</svg>
