<svg width="25" height="23" viewBox="0 0 25 23" fill="none" xmlns="http://www.w3.org/2000/svg">
<g clip-path="url(#clip0_720_177)">
<mask id="mask0_720_177" style="mask-type:luminance" maskUnits="userSpaceOnUse" x="0" y="0" width="25" height="23">
<path d="M25 0H0V23H25V0Z" fill="white"/>
</mask>
<g mask="url(#mask0_720_177)">
<path d="M18.7699 3.8418H0.749176C0.335417 3.8418 0 4.17102 0 4.57712V22.2637C0 22.6698 0.335417 22.999 0.749176 22.999H18.7699C19.1836 22.999 19.519 22.6698 19.519 22.2637V4.57712C19.519 4.17102 19.1836 3.8418 18.7699 3.8418Z" fill="white"/>
<path d="M9.95768 19.9328C9.89175 20.0475 9.78162 20.0482 9.71345 19.9328C7.81579 16.7599 2.77458 10.0273 2.72363 9.95962C2.68393 9.90668 2.8907 9.63021 3.18438 9.34638L3.83542 8.714C3.98847 8.57501 4.18441 8.49013 4.39218 8.47281C4.59995 8.4555 4.80766 8.50673 4.9824 8.6184L9.80485 11.9274C13.2286 7.5669 16.4223 4.57415 18.5058 2.8241C20.784 0.912268 22.2674 0.0298967 22.2824 0.0218082C22.2974 0.0137197 22.657 0.00195312 23.0653 0.00195312H24.479C24.891 0.00195312 25.1038 0.111519 24.9509 0.244612C17.7941 6.49923 10.0356 19.799 9.95768 19.9328Z" fill="#08AC9E"/>
</g>
</g>
<defs>
<clipPath id="clip0_720_177">
<rect width="25" height="23" fill="white"/>
</clipPath>
</defs>
</svg>
