<svg width="482" height="482" viewBox="0 0 482 482" fill="none" xmlns="http://www.w3.org/2000/svg">
<line x1="75.3665" y1="279.66" x2="191.367" y2="404.66" stroke="white"/>
<line x1="71.3665" y1="285.66" x2="187.367" y2="410.66" stroke="white"/>
<line x1="67.3665" y1="291.66" x2="183.367" y2="416.66" stroke="white"/>
<line x1="64.3658" y1="299.659" x2="173.366" y2="416.659" stroke="white"/>
<line x1="61.3664" y1="309.66" x2="165.366" y2="421.66" stroke="white"/>
<line x1="61.3693" y1="321.663" x2="155.369" y2="424.663" stroke="white"/>
<line x1="59.3653" y1="332.659" x2="145.365" y2="424.659" stroke="white"/>
<line x1="59.367" y1="344.66" x2="133.367" y2="424.66" stroke="white"/>
<line x1="64.3678" y1="361.661" x2="122.368" y2="424.661" stroke="white"/>
<path d="M319 117.5C335.5 107.166 378.9 88.8998 420.5 98.4998C472.5 110.5 518 180 388.5 334.5" stroke="#08AC9E" stroke-width="2" stroke-dasharray="8 8"/>
<path d="M362 207.688C335.107 255.927 277.807 257.385 246.21 239.77C214.614 222.156 183.607 161.927 210.5 113.688C237.393 65.4496 312.001 47.4678 343.597 65.0825C375.194 82.6971 388.893 159.45 362 207.688Z" fill="#08AC9E"/>
<path d="M220.686 375.239C219.698 377.635 218.626 379.983 217.469 382.274L216.576 381.823C216 382.964 215.402 384.091 214.783 385.202C214.105 386.417 213.408 387.603 212.692 388.758L213.542 389.285C212.049 391.697 210.475 393.982 208.829 396.144L208.033 395.538C206.341 397.761 204.572 399.851 202.736 401.812L203.466 402.496C201.539 404.554 199.54 406.473 197.476 408.259L196.822 407.503C194.722 409.32 192.557 410.997 190.335 412.539L190.906 413.36C188.602 414.96 186.24 416.417 183.83 417.737L183.35 416.86C180.928 418.187 178.457 419.374 175.95 420.427L176.337 421.349C173.763 422.431 171.152 423.374 168.517 424.183L168.223 423.227C165.587 424.037 162.927 424.712 160.255 425.259L160.456 426.239C157.723 426.799 154.979 427.226 152.238 427.529L152.128 426.535C149.383 426.837 146.641 427.013 143.916 427.069L143.936 428.068C141.14 428.126 138.363 428.058 135.62 427.872L135.687 426.875C132.92 426.688 130.188 426.38 127.507 425.96L127.353 426.948C124.574 426.513 121.849 425.957 119.196 425.291L119.44 424.321C116.732 423.641 114.102 422.844 111.567 421.94L111.231 422.882C108.561 421.93 105.995 420.86 103.554 419.683L103.989 418.783C102.742 418.181 101.529 417.552 100.354 416.897C99.2404 416.276 98.1266 415.601 97.0148 414.873L96.4671 415.71C94.3229 414.306 92.191 412.714 90.0895 410.951L90.7323 410.185C88.7812 408.548 86.8546 406.759 84.9675 404.832L84.2532 405.532C82.4361 403.677 80.6572 401.698 78.9293 399.606L79.7002 398.969C78.0549 396.978 76.4557 394.883 74.9143 392.695L74.0968 393.271C72.5877 391.129 71.1338 388.9 69.746 386.594L70.6028 386.078C69.2606 383.848 67.9805 381.545 66.7723 379.178L65.8817 379.633C64.6842 377.287 63.5568 374.879 62.5087 372.418L63.4288 372.027C62.4032 369.618 61.4544 367.159 60.5913 364.658L59.646 364.984C58.7833 362.484 58.0053 359.941 57.3208 357.364L58.2873 357.107C57.614 354.573 57.0321 352.005 56.5501 349.413L55.5669 349.596C55.0825 346.992 54.6978 344.362 54.4212 341.715L55.4158 341.611C55.1433 339.002 54.9769 336.378 54.9249 333.745L53.9251 333.765C53.8727 331.118 53.9347 328.462 54.119 325.805L55.1166 325.874C55.2976 323.267 55.5977 320.659 56.0248 318.058L55.038 317.896C55.4659 315.29 56.0198 312.691 56.7075 310.106L57.6739 310.363C58.3416 307.853 59.137 305.356 60.0672 302.879L59.1311 302.527C60.0538 300.07 61.1077 297.633 62.2996 295.221L63.1961 295.665C63.7741 294.495 64.3851 293.332 65.0298 292.175C65.6444 291.073 66.2843 289.986 66.9485 288.915L66.0987 288.388C67.4449 286.218 68.889 284.113 70.4221 282.074L71.2214 282.675C72.7364 280.66 74.3397 278.709 76.0227 276.823L75.2765 276.157C76.9728 274.256 78.7485 272.42 80.5947 270.652L81.2865 271.374C83.1075 269.629 84.9983 267.949 86.9503 266.334L86.3128 265.564C88.2761 263.939 90.3001 262.381 92.376 260.889L92.9596 261.701C95.012 260.226 97.1162 258.816 99.2635 257.472L98.733 256.625C100.896 255.271 103.102 253.983 105.343 252.763L105.821 253.641C108.048 252.427 110.31 251.281 112.597 250.201L112.17 249.297C114.484 248.205 116.824 247.181 119.18 246.226L119.556 247.153C121.916 246.197 124.294 245.31 126.68 244.493L126.357 243.547C128.786 242.715 131.223 241.956 133.66 241.269L133.932 242.232C136.395 241.538 138.857 240.919 141.308 240.375L141.091 239.399C143.61 238.84 146.117 238.36 148.603 237.96L148.762 238.947C151.302 238.539 153.819 238.214 156.3 237.973L156.204 236.978C158.792 236.727 161.343 236.567 163.844 236.5L163.872 237.499C166.453 237.429 168.979 237.458 171.437 237.586L171.489 236.587C174.11 236.723 176.657 236.972 179.111 237.333L178.965 238.322C181.541 238.701 184.009 239.206 186.35 239.836L186.61 238.87C189.169 239.559 191.584 240.397 193.83 241.385L193.427 242.3C194.59 242.812 195.704 243.364 196.767 243.956C197.842 244.555 198.897 245.226 199.933 245.966L200.514 245.152C202.541 246.601 204.484 248.3 206.337 250.223L205.617 250.917C207.309 252.674 208.929 254.626 210.469 256.755L211.28 256.168C212.746 258.194 214.138 260.373 215.452 262.687L214.583 263.18C215.807 265.336 216.964 267.613 218.049 269.997L218.959 269.582C220.003 271.875 220.98 274.263 221.887 276.734L220.948 277.078C221.813 279.435 222.615 281.869 223.35 284.37L224.309 284.088C225.025 286.524 225.678 289.022 226.265 291.571L225.29 291.796C225.858 294.261 226.364 296.774 226.805 299.327L227.791 299.157C228.226 301.675 228.599 304.23 228.908 306.814L227.915 306.932C228.217 309.458 228.456 312.013 228.632 314.586L229.629 314.518C229.804 317.078 229.915 319.657 229.961 322.247L228.962 322.265C229.007 324.82 228.988 327.385 228.904 329.953L229.903 329.986C229.819 332.56 229.668 335.137 229.449 337.709L228.453 337.625C228.236 340.178 227.952 342.725 227.598 345.259L228.588 345.398C228.231 347.957 227.803 350.503 227.304 353.029L226.323 352.834C225.824 355.353 225.253 357.849 224.608 360.315L225.576 360.568C224.92 363.074 224.188 365.55 223.378 367.988L222.429 367.672C221.62 370.11 220.731 372.508 219.761 374.858L220.686 375.239Z" stroke="#08AC9E" stroke-width="2" stroke-dasharray="8 8"/>
<path d="M301.096 378.578C247.01 367.405 169.778 292.004 177.096 256.577C184.414 221.151 281.163 216.997 335.25 228.17C389.337 239.343 443.413 274.651 436.095 310.078C428.777 345.504 355.183 389.75 301.096 378.578Z" fill="#08AC9E"/>
<path d="M191.598 166.175C239.427 193.789 289.029 289.651 270.942 320.979C252.855 352.308 159.708 325.826 111.879 298.212C64.0494 270.598 23.8193 220.075 41.9066 188.747C59.994 157.419 143.768 138.561 191.598 166.175Z" fill="#08AC9E"/>
<circle cx="241" cy="241" r="163" fill="#D9D9D9" stroke="white" stroke-width="2"/>
<path d="M405.551 88.0962C408.343 88.7223 410.871 86.2992 410.363 83.4831L408.09 70.884C407.637 68.3733 404.981 66.9224 402.624 67.8981L383.679 75.7395C380.07 77.2334 380.522 82.4838 384.334 83.3385L405.551 88.0962Z" fill="#08AC9E"/>
<path d="M382.078 24.6237C383.602 22.1717 387.143 22.0931 388.775 24.4751L402.422 44.3983C403.86 46.497 402.999 49.3869 400.647 50.3567L365.638 64.7942C362.046 66.2753 358.665 62.2837 360.716 58.9844L382.078 24.6237Z" fill="#1E3345"/>
<circle cx="101.5" cy="92.5" r="9.5" stroke="#FF6E34" stroke-width="2"/>
<circle cx="437.5" cy="187.5" r="9.5" stroke="#FF6E34" stroke-width="2"/>
<circle cx="261.5" cy="448.5" r="9.5" stroke="#116B64" stroke-width="2"/>
<path d="M143.143 41.0518L157.153 55.062" stroke="#08AC9E" stroke-width="2" stroke-linecap="round"/>
<path d="M155.916 41.0518L141.906 55.062" stroke="#08AC9E" stroke-width="2" stroke-linecap="round"/>
<path d="M319.236 34L333.247 48.0102" stroke="#FF621F" stroke-width="2" stroke-linecap="round"/>
<path d="M332.01 34L317.999 48.0102" stroke="#FF621F" stroke-width="2" stroke-linecap="round"/>
<path d="M459.236 280L473.247 294.01" stroke="#FF621F" stroke-width="2" stroke-linecap="round"/>
<path d="M472.01 280L457.999 294.01" stroke="#FF621F" stroke-width="2" stroke-linecap="round"/>
<path d="M20.2363 281L34.2466 295.01" stroke="#FF621F" stroke-width="2" stroke-linecap="round"/>
<path d="M33.0098 281L18.9994 295.01" stroke="#FF621F" stroke-width="2" stroke-linecap="round"/>
<path d="M389.236 387L403.247 401.01" stroke="#08AC9E" stroke-width="2" stroke-linecap="round"/>
<path d="M402.01 387L387.999 401.01" stroke="#08AC9E" stroke-width="2" stroke-linecap="round"/>
</svg>
