<svg width="25" height="23" viewBox="0 0 25 23" fill="none" xmlns="http://www.w3.org/2000/svg">
<g clip-path="url(#clip0_721_208)">
<mask id="mask0_721_208" style="mask-type:luminance" maskUnits="userSpaceOnUse" x="0" y="0" width="25" height="23">
<path d="M25 0H0V23H25V0Z" fill="white"/>
</mask>
<g mask="url(#mask0_721_208)">
<path d="M15.3092 7H-1.30913C-1.69069 7 -2 7.30933 -2 7.6909V24.3091C-2 24.6907 -1.69069 25 -1.30913 25H15.3092C15.6907 25 16 24.6907 16 24.3091V7.6909C16 7.30933 15.6907 7 15.3092 7Z" fill="white"/>
</g>
<path d="M23.0551 2.36041C10.6412 12.4483 6.61925 18.3158 4.1381 21.3331C4.06341 21.424 3.9283 21.4283 3.84514 21.3451L0.630126 18.1301C0.556575 18.0566 0.550912 17.9397 0.618454 17.8606C6.11133 11.4273 14.9805 5.01847 19.9537 2.02784C19.9847 2.00916 20.0191 2 20.0554 2H22.9341C23.1227 2 23.2015 2.24148 23.0551 2.36041Z" fill="#08AC9E"/>
<path d="M1.44487 2.36041C13.8588 12.4483 17.8807 18.3158 20.3619 21.3331C20.4366 21.424 20.5717 21.4283 20.6549 21.3451L23.8699 18.1301C23.9434 18.0566 23.9491 17.9397 23.8815 17.8606C18.3887 11.4273 9.51953 5.01847 4.54634 2.02784C4.51528 2.00916 4.48085 2 4.4446 2H1.56592C1.37733 2 1.29852 2.24148 1.44487 2.36041Z" fill="#08AC9E"/>
</g>
<defs>
<clipPath id="clip0_721_208">
<rect width="25" height="23" fill="white"/>
</clipPath>
</defs>
</svg>
