<svg width="18" height="18" viewBox="0 0 18 18" fill="none" xmlns="http://www.w3.org/2000/svg">
<path d="M9.33899 5.29289C7.47537 5.29289 5.97135 6.79692 5.97135 8.66053C5.97135 10.5241 7.47537 12.0282 9.33899 12.0282C11.2026 12.0282 12.7066 10.5241 12.7066 8.66053C12.7066 6.79692 11.2026 5.29289 9.33899 5.29289ZM9.33899 10.8492C8.13379 10.8492 7.15027 9.86572 7.15027 8.66053C7.15027 7.45534 8.13379 6.47181 9.33899 6.47181C10.5442 6.47181 11.5277 7.45534 11.5277 8.66053C11.5277 9.86572 10.5442 10.8492 9.33899 10.8492ZM12.8445 4.37011C12.4094 4.37011 12.0581 4.72149 12.0581 5.15661C12.0581 5.59172 12.4094 5.9431 12.8445 5.9431C13.2797 5.9431 13.631 5.59337 13.631 5.15661C13.6312 5.05329 13.6109 4.95096 13.5714 4.85548C13.532 4.76 13.474 4.67324 13.401 4.60018C13.3279 4.52713 13.2412 4.4692 13.1457 4.42972C13.0502 4.39024 12.9479 4.36998 12.8445 4.37011ZM15.9035 8.66053C15.9035 7.75417 15.9117 6.85603 15.8608 5.95131C15.8099 4.90046 15.5702 3.96784 14.8018 3.1994C14.0317 2.42933 13.1007 2.19125 12.0498 2.14035C11.1435 2.08945 10.2453 2.09766 9.34063 2.09766C8.43427 2.09766 7.53613 2.08945 6.63141 2.14035C5.58056 2.19125 4.64794 2.43097 3.8795 3.1994C3.10943 3.96948 2.87135 4.90046 2.82045 5.95131C2.76955 6.85767 2.77776 7.75581 2.77776 8.66053C2.77776 9.56524 2.76955 10.465 2.82045 11.3697C2.87135 12.4206 3.11107 13.3532 3.8795 14.1217C4.64958 14.8917 5.58056 15.1298 6.63141 15.1807C7.53777 15.2316 8.43591 15.2234 9.34063 15.2234C10.247 15.2234 11.1451 15.2316 12.0498 15.1807C13.1007 15.1298 14.0333 14.8901 14.8018 14.1217C15.5718 13.3516 15.8099 12.4206 15.8608 11.3697C15.9134 10.465 15.9035 9.56688 15.9035 8.66053ZM14.4586 12.5322C14.3387 12.8311 14.1942 13.0544 13.9627 13.2843C13.7312 13.5158 13.5095 13.6603 13.2107 13.7801C12.347 14.1233 10.2962 14.0461 9.33899 14.0461C8.38173 14.0461 6.32929 14.1233 5.46563 13.7818C5.16679 13.6619 4.94349 13.5174 4.71361 13.2859C4.4821 13.0544 4.33761 12.8327 4.21775 12.5339C3.87622 11.6686 3.95339 9.61778 3.95339 8.66053C3.95339 7.70327 3.87622 5.65083 4.21775 4.78717C4.33761 4.48833 4.4821 4.26503 4.71361 4.03516C4.94513 3.80528 5.16679 3.65915 5.46563 3.53929C6.32929 3.19776 8.38173 3.27493 9.33899 3.27493C10.2962 3.27493 12.3487 3.19776 13.2123 3.53929C13.5112 3.65915 13.7345 3.80364 13.9644 4.03516C14.1959 4.26667 14.3404 4.48833 14.4602 4.78717C14.8018 5.65083 14.7246 7.70327 14.7246 8.66053C14.7246 9.61778 14.8018 11.6686 14.4586 12.5322Z" fill="white"/>
</svg>
