<svg width="295" height="171" viewBox="0 0 295 171" fill="none" xmlns="http://www.w3.org/2000/svg">
<g opacity="0.2" clip-path="url(#clip0_218_70)">
<path d="M345.406 94.0679C332.46 134.813 289.814 159.386 247.851 167.252C221.709 172.154 193.987 171.976 169.397 161.861C144.806 151.746 123.905 130.588 118.528 104.522C113.151 78.4553 126.097 48.4798 150.61 38.2459C155.197 36.336 160.318 35.1044 165.125 36.3598C176.841 39.4181 180.216 55.1555 176.621 66.734C168.844 91.7533 141.051 105.67 114.933 107.14C56.8636 110.412 1.49717 58.8147 0.570342 0.577148" stroke="#374A63" stroke-width="2" stroke-miterlimit="10" stroke-linecap="round" stroke-dasharray="12 12"/>
</g>
<defs>
<clipPath id="clip0_218_70">
<rect width="346" height="171" fill="white" transform="matrix(-1 0 0 1 346 0)"/>
</clipPath>
</defs>
</svg>
