<svg width="1052" height="127" viewBox="0 0 1052 127" fill="none" xmlns="http://www.w3.org/2000/svg">
<path d="M104.5 0L10.5 81L104.5 17L171 64L144.5 35.5L156.5 24L251.5 100L155 8.5L132.5 25L104.5 0Z" fill="#FF621F"/>
<path d="M104.5 26L27 77L159.5 73.5L237 98.5L158.5 35.5L174 63L183 77L104.5 26Z" fill="#FF621F"/>
<path d="M31.5 88.7287C26.7 89.0663 8.5 90.8388 0 91.6828C6 92.5265 26 93.5365 42 91.683C67.5 88.729 109 87.041 118.5 86.619C128 86.197 141 86.619 139.5 91.683C138 96.747 116 99.2791 106 100.967C96 102.655 81.5 106.031 76 111.095C72 114.778 73 118.269 78 120.801C95.5 128.397 147 127.975 204 125.021C234.471 123.442 258.667 119.535 267 118.269L237.5 109.829C189 119.113 116 117.003 107 116.159C100.954 115.592 88.5 112.783 109 108.141C130 104.343 161.5 95.481 166 91.683C170.5 87.885 169.5 83.6647 141 82.3987C118.2 81.3859 97.5 82.5394 90 83.2427C56.5 85.7747 37.5 88.3067 31.5 88.7287Z" fill="#FF621F"/>
<path d="M296.56 81.76V68.32H308.56C309.76 68.32 311.08 68.28 312.52 68.2C313.96 68.12 315.4 67.84 316.84 67.36C318.28 66.8 319.6 65.96 320.8 64.84C322.08 63.72 323.08 62.16 323.8 60.16C324.52 58.16 324.88 55.6 324.88 52.48C324.88 49.44 324.52 46.96 323.8 45.04C323.08 43.12 322.12 41.64 320.92 40.6C319.8 39.48 318.56 38.68 317.2 38.2C315.84 37.72 314.56 37.44 313.36 37.36C312.16 37.2 311.16 37.12 310.36 37.12H296.56V23.8H311.8C315.88 23.8 319.72 24.32 323.32 25.36C327 26.4 330.24 28.08 333.04 30.4C335.92 32.72 338.16 35.72 339.76 39.4C341.44 43.08 342.28 47.52 342.28 52.72C342.28 59.28 340.88 64.72 338.08 69.04C335.36 73.28 331.4 76.48 326.2 78.64C321.08 80.72 314.92 81.76 307.72 81.76H296.56ZM284.56 103V23.8H301.36V103H284.56ZM380.109 104.68C374.989 104.68 370.429 103.8 366.429 102.04C362.509 100.2 359.229 97.56 356.589 94.12C353.949 90.6 351.949 86.32 350.589 81.28C349.229 76.16 348.549 70.28 348.549 63.64C348.549 54.28 349.829 46.56 352.389 40.48C355.029 34.32 358.709 29.76 363.429 26.8C368.229 23.76 373.909 22.24 380.469 22.24C385.509 22.24 389.989 23.12 393.909 24.88C397.909 26.56 401.269 29.12 403.989 32.56C406.709 35.92 408.749 40.2 410.109 45.4C411.549 50.52 412.269 56.48 412.269 63.28C412.269 70.08 411.549 76.08 410.109 81.28C408.669 86.4 406.589 90.72 403.869 94.24C401.149 97.68 397.789 100.28 393.789 102.04C389.869 103.8 385.309 104.68 380.109 104.68ZM380.349 91.36C382.269 91.36 384.069 90.88 385.749 89.92C387.509 88.96 389.069 87.44 390.429 85.36C391.869 83.2 392.989 80.4 393.789 76.96C394.589 73.44 394.989 69.24 394.989 64.36C394.989 57.96 394.349 52.64 393.069 48.4C391.869 44.16 390.149 41 387.909 38.92C385.669 36.84 383.069 35.8 380.109 35.8C378.509 35.8 376.869 36.24 375.189 37.12C373.509 37.92 371.949 39.36 370.509 41.44C369.149 43.44 368.029 46.24 367.149 49.84C366.349 53.36 365.949 57.88 365.949 63.4C365.949 68.84 366.349 73.36 367.149 76.96C367.949 80.48 369.029 83.32 370.389 85.48C371.749 87.56 373.269 89.08 374.949 90.04C376.709 90.92 378.509 91.36 380.349 91.36ZM422.612 103V23.8H439.412V59.68C442.372 57.84 445.132 55.68 447.692 53.2C450.332 50.72 452.692 47.96 454.772 44.92C456.852 41.88 458.572 38.6 459.932 35.08C461.372 31.56 462.372 27.8 462.932 23.8H481.892C481.092 28.12 479.812 32.24 478.052 36.16C476.372 40.08 474.252 43.72 471.692 47.08C469.212 50.44 466.452 53.44 463.412 56.08C460.452 58.72 457.292 60.92 453.932 62.68V64C457.532 64 460.652 64.44 463.292 65.32C466.012 66.12 468.332 67.36 470.252 69.04C472.172 70.64 473.772 72.68 475.052 75.16C476.332 77.56 477.372 80.4 478.172 83.68L482.612 103H464.252L461.492 88.6C460.772 84.76 459.892 81.6 458.852 79.12C457.812 76.64 456.212 74.8 454.052 73.6C451.892 72.4 448.852 71.8 444.932 71.8H439.412V103H422.612ZM533.47 103V23.8H550.39V103H533.47ZM491.11 103V23.8H507.91V103H491.11ZM501.07 69.64V55.72H540.43V69.64H501.07ZM557.127 103L578.127 23.8H603.567L624.447 103H606.087L591.567 37.24H589.887L575.127 103H557.127ZM571.287 88.24V76.84H612.087V88.24H571.287ZM631.271 103V23.8H658.751C661.471 23.8 664.231 24.04 667.031 24.52C669.911 24.92 672.631 25.68 675.191 26.8C677.751 27.84 680.031 29.28 682.031 31.12C684.111 32.88 685.751 35.12 686.951 37.84C688.151 40.48 688.751 43.68 688.751 47.44C688.751 50 688.391 52.4 687.671 54.64C686.951 56.8 685.831 58.76 684.311 60.52C682.791 62.28 680.831 63.76 678.431 64.96C676.031 66.08 673.151 66.92 669.791 67.48V68.92C673.631 69.32 676.631 70.32 678.791 71.92C680.951 73.44 682.591 75.48 683.711 78.04C684.911 80.52 685.951 83.48 686.831 86.92L690.911 103H672.791L669.791 88.48C669.151 85.6 668.311 83.2 667.271 81.28C666.311 79.28 664.991 77.8 663.311 76.84C661.631 75.8 659.431 75.24 656.711 75.16H648.071V103H631.271ZM648.071 63.04H655.631C657.071 63.04 658.511 62.96 659.951 62.8C661.391 62.64 662.791 62.32 664.151 61.84C665.591 61.28 666.831 60.52 667.871 59.56C668.991 58.52 669.871 57.2 670.511 55.6C671.151 54 671.471 52.04 671.471 49.72C671.471 47.48 671.151 45.6 670.511 44.08C669.951 42.56 669.151 41.36 668.111 40.48C667.071 39.52 665.911 38.8 664.631 38.32C663.431 37.84 662.191 37.52 660.911 37.36C659.631 37.2 658.431 37.12 657.311 37.12H648.071V63.04ZM694.358 103L715.358 23.8H740.798L761.678 103H743.318L728.798 37.24H727.118L712.358 103H694.358ZM708.518 88.24V76.84H749.318V88.24H708.518Z" fill="#414142"/>
<path d="M800.04 103V77.92L774.6 23.8H795.12L808.56 64.48H809.4L822.72 23.8H842.4L817.44 77.8V103H800.04ZM873.476 104.68C868.356 104.68 863.796 103.8 859.796 102.04C855.876 100.2 852.596 97.56 849.956 94.12C847.316 90.6 845.316 86.32 843.956 81.28C842.596 76.16 841.916 70.28 841.916 63.64C841.916 54.28 843.196 46.56 845.756 40.48C848.396 34.32 852.076 29.76 856.796 26.8C861.596 23.76 867.276 22.24 873.836 22.24C878.876 22.24 883.356 23.12 887.276 24.88C891.276 26.56 894.636 29.12 897.356 32.56C900.076 35.92 902.116 40.2 903.476 45.4C904.916 50.52 905.636 56.48 905.636 63.28C905.636 70.08 904.916 76.08 903.476 81.28C902.036 86.4 899.956 90.72 897.236 94.24C894.516 97.68 891.156 100.28 887.156 102.04C883.236 103.8 878.676 104.68 873.476 104.68ZM873.716 91.36C875.636 91.36 877.436 90.88 879.116 89.92C880.876 88.96 882.436 87.44 883.796 85.36C885.236 83.2 886.356 80.4 887.156 76.96C887.956 73.44 888.356 69.24 888.356 64.36C888.356 57.96 887.716 52.64 886.436 48.4C885.236 44.16 883.516 41 881.276 38.92C879.036 36.84 876.436 35.8 873.476 35.8C871.876 35.8 870.236 36.24 868.556 37.12C866.876 37.92 865.316 39.36 863.876 41.44C862.516 43.44 861.396 46.24 860.516 49.84C859.716 53.36 859.316 57.88 859.316 63.4C859.316 68.84 859.716 73.36 860.516 76.96C861.316 80.48 862.396 83.32 863.756 85.48C865.116 87.56 866.636 89.08 868.316 90.04C870.076 90.92 871.876 91.36 873.716 91.36ZM941.659 104.56C935.819 104.56 930.779 102.92 926.539 99.64C922.379 96.36 919.179 91.68 916.939 85.6C914.779 79.52 913.699 72.24 913.699 63.76C913.699 57.68 914.299 52.12 915.499 47.08C916.779 41.96 918.779 37.56 921.499 33.88C924.219 30.2 927.659 27.36 931.819 25.36C936.059 23.28 941.179 22.24 947.179 22.24C952.139 22.24 956.379 22.96 959.899 24.4C963.499 25.76 966.419 27.68 968.659 30.16C970.899 32.56 972.499 35.36 973.459 38.56C974.499 41.76 974.899 45.16 974.659 48.76L958.699 51.88C958.779 49.4 958.539 47.16 957.979 45.16C957.419 43.16 956.579 41.48 955.459 40.12C954.419 38.68 953.099 37.6 951.499 36.88C949.979 36.16 948.259 35.8 946.339 35.8C944.099 35.8 942.059 36.32 940.219 37.36C938.379 38.32 936.739 39.88 935.299 42.04C933.939 44.2 932.859 47.04 932.059 50.56C931.339 54.08 930.979 58.32 930.979 63.28C930.979 68.56 931.379 73 932.179 76.6C932.979 80.2 934.099 83.08 935.539 85.24C936.979 87.32 938.619 88.84 940.459 89.8C942.379 90.68 944.379 91.12 946.459 91.12C949.179 91.12 951.499 90.52 953.419 89.32C955.419 88.04 956.979 86.2 958.099 83.8C959.299 81.32 960.019 78.32 960.259 74.8H948.019V62.68H976.099V76.12V103H964.939L965.419 81.28H963.379C962.659 86.24 961.459 90.48 959.779 94C958.099 97.44 955.779 100.08 952.819 101.92C949.939 103.68 946.219 104.56 941.659 104.56ZM982.23 103L1003.23 23.8H1028.67L1049.55 103H1031.19L1016.67 37.24H1014.99L1000.23 103H982.23ZM996.39 88.24V76.84H1037.19V88.24H996.39Z" fill="#FF621F"/>
</svg>
