<svg width="1366" height="793" viewBox="0 0 1366 793" fill="none" xmlns="http://www.w3.org/2000/svg">
<path d="M901.563 631.113C902.717 631.038 903.875 631.163 904.986 631.483L1357.05 761.793C1368.11 764.979 1368.56 792.064 1357.05 792.218H544.217C540.709 792.265 537.204 791.976 533.751 791.355L2.4696 695.845C-1.0155 695.218 -0.728816 690.13 2.8046 689.899L901.563 631.113Z" fill="url(#paint0_linear_601_179)"/>
<path d="M569.007 460.867C522.549 431.816 493.091 474.73 484.7 498.942C477.089 522.567 468.265 567.461 491.725 583.291C516.9 600.278 555.931 569.037 570.763 554.003C589.888 534.478 615.844 490.156 569.007 460.867Z" fill="black"/>
<path d="M599.217 383.548C370.182 387.765 371.9 547.365 394.538 626.638C342.548 521.201 377.95 437.437 402.149 408.735C541.49 221.292 980.004 350.159 936.68 315.6C891.664 279.691 823.49 259.952 792.655 252.338C1043.23 252.338 1076.02 366.561 961.855 383.548C870.522 397.137 741.524 389.21 688.442 383.548C762.445 618.32 597.109 688.338 505.191 694C702.376 632.612 645.469 461.454 599.217 383.548Z" fill="black"/>
<path d="M560.225 293.926C582.238 288.772 624.821 281.82 641.019 281.039C584.229 153.93 501.093 66.6518 504.02 63.1368C506.948 59.6219 644.532 164.473 644.532 164.473C489.969 -57.5294 434.146 -7.15701 441.961 43.8069C457.768 146.9 522.755 252.923 560.225 293.926Z" fill="#FF621F"/>
<defs>
<linearGradient id="paint0_linear_601_179" x1="241.993" y1="719.055" x2="333.114" y2="429.83" gradientUnits="userSpaceOnUse">
<stop stop-color="#28D959"/>
<stop offset="1" stop-color="white" stop-opacity="0"/>
</linearGradient>
</defs>
</svg>
