<svg width="947" height="106" viewBox="0 0 947 106" fill="none" xmlns="http://www.w3.org/2000/svg">
<path fill-rule="evenodd" clip-rule="evenodd" d="M3.9061 71.9052L95.6995 0L126 22L143.549 7.5L206.047 77.5679L143.549 18.4454L132.808 26.9167L156.732 53.4246L95.6995 9.79308L3.9061 71.9052ZM0 81.6103L97.6526 16.5866L150.385 52.4952L165.521 63.6272L140.131 23.6639L208 86.4628L147.344 105.499C152.845 102.348 153.315 97.9257 153.315 95.7077C153.315 93.2825 146.199 94.2089 143.396 94.5739C143.03 94.6216 142.737 94.6597 142.543 94.6795C142.257 94.7087 141.719 94.8453 140.975 95.0341C137.366 95.9501 128.909 98.0967 120.822 95.1936C117.308 93.932 117.377 78.9702 119.451 71.3726C126.919 92.3488 130.576 97.3783 143.262 93.8226C136.32 91.7661 133.448 87.8245 130.576 83.026C129.03 80.4448 128.833 76.2839 128.627 71.9722C128.451 68.2685 128.27 64.4535 127.225 61.4329C126.251 58.6193 116.496 56.6448 111.763 55.6867C110.895 55.5111 110.196 55.3696 109.751 55.2634C107.711 54.7764 108.638 53.3525 109.207 52.4796C109.279 52.3695 109.345 52.2682 109.398 52.1786C117.572 46.9011 113.24 39.0004 109.398 36.4122C109.797 34.6413 108.268 31.0996 103.289 31.0996C98.3105 31.0996 96.9402 34.6413 97.4189 36.4122C95.504 37.5547 91.8178 40.8337 92.3923 44.8096C92.9668 48.7854 96.1422 51.3789 97.6582 52.1786C98.6156 54.2351 98.3423 55.092 97.5445 55.2634C94.0339 55.8918 86.151 57.6283 82.7043 59.5477C79.5338 61.3133 79.5119 61.8864 79.3121 67.1094C79.2404 68.984 79.1458 71.4575 78.8746 74.8C78.0396 85.0882 69.5396 91.5947 64.7525 93.6512C80.7774 96.4686 83.9175 83.4701 85.9939 74.8751C86.3408 73.439 86.6581 72.1258 87.0008 71.0298C90.4939 77.199 88.4913 88.5501 87.9306 91.728C87.915 91.8164 87.9005 91.8985 87.8873 91.974C87.7391 92.3267 87.6708 92.7217 87.6006 93.1283C87.2083 95.3994 86.7532 98.0334 71.9332 95.7077C59.6781 92.9657 55.3375 94.2225 54.6991 95.1936C52.9478 96.9849 53.7059 99.7556 55.5218 102.402L0 81.6103Z" fill="#FF621F"/>
<path d="M245.93 69.78V57.46H256.93C258.03 57.46 259.24 57.4233 260.56 57.35C261.88 57.2767 263.2 57.02 264.52 56.58C265.84 56.0667 267.05 55.2967 268.15 54.27C269.323 53.2433 270.24 51.8133 270.9 49.98C271.56 48.1467 271.89 45.8 271.89 42.94C271.89 40.1533 271.56 37.88 270.9 36.12C270.24 34.36 269.36 33.0033 268.26 32.05C267.233 31.0233 266.097 30.29 264.85 29.85C263.603 29.41 262.43 29.1533 261.33 29.08C260.23 28.9333 259.313 28.86 258.58 28.86H245.93V16.65H259.9C263.64 16.65 267.16 17.1267 270.46 18.08C273.833 19.0333 276.803 20.5733 279.37 22.7C282.01 24.8267 284.063 27.5767 285.53 30.95C287.07 34.3233 287.84 38.3933 287.84 43.16C287.84 49.1733 286.557 54.16 283.99 58.12C281.497 62.0067 277.867 64.94 273.1 66.92C268.407 68.8267 262.76 69.78 256.16 69.78H245.93ZM234.93 89.25V16.65H250.33V89.25H234.93ZM322.517 90.79C317.823 90.79 313.643 89.9833 309.977 88.37C306.383 86.6833 303.377 84.2633 300.957 81.11C298.537 77.8833 296.703 73.96 295.457 69.34C294.21 64.6467 293.587 59.2567 293.587 53.17C293.587 44.59 294.76 37.5133 297.107 31.94C299.527 26.2933 302.9 22.1133 307.227 19.4C311.627 16.6133 316.833 15.22 322.847 15.22C327.467 15.22 331.573 16.0267 335.167 17.64C338.833 19.18 341.913 21.5267 344.407 24.68C346.9 27.76 348.77 31.6833 350.017 36.45C351.337 41.1433 351.997 46.6067 351.997 52.84C351.997 59.0733 351.337 64.5733 350.017 69.34C348.697 74.0333 346.79 77.9933 344.297 81.22C341.803 84.3733 338.723 86.7567 335.057 88.37C331.463 89.9833 327.283 90.79 322.517 90.79ZM322.737 78.58C324.497 78.58 326.147 78.14 327.687 77.26C329.3 76.38 330.73 74.9867 331.977 73.08C333.297 71.1 334.323 68.5333 335.057 65.38C335.79 62.1533 336.157 58.3033 336.157 53.83C336.157 47.9633 335.57 43.0867 334.397 39.2C333.297 35.3133 331.72 32.4167 329.667 30.51C327.613 28.6033 325.23 27.65 322.517 27.65C321.05 27.65 319.547 28.0533 318.007 28.86C316.467 29.5933 315.037 30.9133 313.717 32.82C312.47 34.6533 311.443 37.22 310.637 40.52C309.903 43.7467 309.537 47.89 309.537 52.95C309.537 57.9367 309.903 62.08 310.637 65.38C311.37 68.6067 312.36 71.21 313.607 73.19C314.853 75.0967 316.247 76.49 317.787 77.37C319.4 78.1767 321.05 78.58 322.737 78.58ZM361.477 89.25V16.65H376.877V49.54C379.591 47.8533 382.121 45.8733 384.467 43.6C386.887 41.3267 389.051 38.7967 390.957 36.01C392.864 33.2233 394.441 30.2167 395.687 26.99C397.007 23.7633 397.924 20.3167 398.437 16.65H415.817C415.084 20.61 413.911 24.3867 412.297 27.98C410.757 31.5733 408.814 34.91 406.467 37.99C404.194 41.07 401.664 43.82 398.877 46.24C396.164 48.66 393.267 50.6767 390.187 52.29V53.5C393.487 53.5 396.347 53.9033 398.767 54.71C401.261 55.4433 403.387 56.58 405.147 58.12C406.907 59.5867 408.374 61.4567 409.547 63.73C410.721 65.93 411.674 68.5333 412.407 71.54L416.477 89.25H399.647L397.117 76.05C396.457 72.53 395.651 69.6333 394.697 67.36C393.744 65.0867 392.277 63.4 390.297 62.3C388.317 61.2 385.531 60.65 381.937 60.65H376.877V89.25H361.477ZM463.097 89.25V16.65H478.607V89.25H463.097ZM424.267 89.25V16.65H439.667V89.25H424.267ZM433.397 58.67V45.91H469.477V58.67H433.397ZM484.783 89.25L504.033 16.65H527.353L546.493 89.25H529.663L516.353 28.97H514.813L501.283 89.25H484.783ZM497.763 75.72V65.27H535.163V75.72H497.763ZM552.748 89.25V16.65H577.938C580.432 16.65 582.962 16.87 585.528 17.31C588.168 17.6767 590.662 18.3733 593.008 19.4C595.355 20.3533 597.445 21.6733 599.278 23.36C601.185 24.9733 602.688 27.0267 603.788 29.52C604.888 31.94 605.438 34.8733 605.438 38.32C605.438 40.6667 605.108 42.8667 604.448 44.92C603.788 46.9 602.762 48.6967 601.368 50.31C599.975 51.9233 598.178 53.28 595.978 54.38C593.778 55.4067 591.138 56.1767 588.058 56.69V58.01C591.578 58.3767 594.328 59.2933 596.308 60.76C598.288 62.1533 599.792 64.0233 600.818 66.37C601.918 68.6433 602.872 71.3567 603.678 74.51L607.418 89.25H590.808L588.058 75.94C587.472 73.3 586.702 71.1 585.748 69.34C584.868 67.5067 583.658 66.15 582.118 65.27C580.578 64.3167 578.562 63.8033 576.068 63.73H568.148V89.25H552.748ZM568.148 52.62H575.078C576.398 52.62 577.718 52.5467 579.038 52.4C580.358 52.2533 581.642 51.96 582.888 51.52C584.208 51.0067 585.345 50.31 586.298 49.43C587.325 48.4767 588.132 47.2667 588.718 45.8C589.305 44.3333 589.598 42.5367 589.598 40.41C589.598 38.3567 589.305 36.6333 588.718 35.24C588.205 33.8467 587.472 32.7467 586.518 31.94C585.565 31.06 584.502 30.4 583.328 29.96C582.228 29.52 581.092 29.2267 579.918 29.08C578.745 28.9333 577.645 28.86 576.618 28.86H568.148V52.62ZM610.578 89.25L629.828 16.65H653.148L672.288 89.25H655.458L642.148 28.97H640.608L627.078 89.25H610.578ZM623.558 75.72V65.27H660.958V75.72H623.558ZM715.95 89.25V66.26L692.63 16.65H711.44L723.76 53.94H724.53L736.74 16.65H754.78L731.9 66.15V89.25H715.95ZM783.266 90.79C778.573 90.79 774.393 89.9833 770.726 88.37C767.133 86.6833 764.126 84.2633 761.706 81.11C759.286 77.8833 757.453 73.96 756.206 69.34C754.96 64.6467 754.336 59.2567 754.336 53.17C754.336 44.59 755.51 37.5133 757.856 31.94C760.276 26.2933 763.65 22.1133 767.976 19.4C772.376 16.6133 777.583 15.22 783.596 15.22C788.216 15.22 792.323 16.0267 795.916 17.64C799.583 19.18 802.663 21.5267 805.156 24.68C807.65 27.76 809.52 31.6833 810.766 36.45C812.086 41.1433 812.746 46.6067 812.746 52.84C812.746 59.0733 812.086 64.5733 810.766 69.34C809.446 74.0333 807.54 77.9933 805.046 81.22C802.553 84.3733 799.473 86.7567 795.806 88.37C792.213 89.9833 788.033 90.79 783.266 90.79ZM783.486 78.58C785.246 78.58 786.896 78.14 788.436 77.26C790.05 76.38 791.48 74.9867 792.726 73.08C794.046 71.1 795.073 68.5333 795.806 65.38C796.54 62.1533 796.906 58.3033 796.906 53.83C796.906 47.9633 796.32 43.0867 795.146 39.2C794.046 35.3133 792.47 32.4167 790.416 30.51C788.363 28.6033 785.98 27.65 783.266 27.65C781.8 27.65 780.296 28.0533 778.756 28.86C777.216 29.5933 775.786 30.9133 774.466 32.82C773.22 34.6533 772.193 37.22 771.386 40.52C770.653 43.7467 770.286 47.89 770.286 52.95C770.286 57.9367 770.653 62.08 771.386 65.38C772.12 68.6067 773.11 71.21 774.356 73.19C775.603 75.0967 776.996 76.49 778.536 77.37C780.15 78.1767 781.8 78.58 783.486 78.58ZM845.767 90.68C840.414 90.68 835.794 89.1767 831.907 86.17C828.094 83.1633 825.16 78.8733 823.107 73.3C821.127 67.7267 820.137 61.0533 820.137 53.28C820.137 47.7067 820.687 42.61 821.787 37.99C822.96 33.2967 824.794 29.2633 827.287 25.89C829.78 22.5167 832.934 19.9133 836.747 18.08C840.634 16.1733 845.327 15.22 850.827 15.22C855.374 15.22 859.26 15.88 862.487 17.2C865.787 18.4467 868.464 20.2067 870.517 22.48C872.57 24.68 874.037 27.2467 874.917 30.18C875.87 33.1133 876.237 36.23 876.017 39.53L861.387 42.39C861.46 40.1167 861.24 38.0633 860.727 36.23C860.214 34.3967 859.444 32.8567 858.417 31.61C857.464 30.29 856.254 29.3 854.787 28.64C853.394 27.98 851.817 27.65 850.057 27.65C848.004 27.65 846.134 28.1267 844.447 29.08C842.76 29.96 841.257 31.39 839.937 33.37C838.69 35.35 837.7 37.9533 836.967 41.18C836.307 44.4067 835.977 48.2933 835.977 52.84C835.977 57.68 836.344 61.75 837.077 65.05C837.81 68.35 838.837 70.99 840.157 72.97C841.477 74.8767 842.98 76.27 844.667 77.15C846.427 77.9567 848.26 78.36 850.167 78.36C852.66 78.36 854.787 77.81 856.547 76.71C858.38 75.5367 859.81 73.85 860.837 71.65C861.937 69.3767 862.597 66.6267 862.817 63.4H851.597V52.29H877.337V64.61V89.25H867.107L867.547 69.34H865.677C865.017 73.8867 863.917 77.7733 862.377 81C860.837 84.1533 858.71 86.5733 855.997 88.26C853.357 89.8733 849.947 90.68 845.767 90.68ZM882.957 89.25L902.207 16.65H925.527L944.667 89.25H927.837L914.527 28.97H912.987L899.457 89.25H882.957ZM895.937 75.72V65.27H933.337V75.72H895.937Z" fill="#414142"/>
<path d="M245.93 69.78H244.93V70.78H245.93V69.78ZM245.93 57.46V56.46H244.93V57.46H245.93ZM260.56 57.35L260.505 56.3515L260.505 56.3515L260.56 57.35ZM264.52 56.58L264.836 57.5287L264.86 57.5209L264.882 57.512L264.52 56.58ZM268.15 54.27L267.491 53.5174L267.479 53.528L267.468 53.5389L268.15 54.27ZM270.9 36.12L269.964 36.4711L269.964 36.4711L270.9 36.12ZM268.26 32.05L267.553 32.7571L267.578 32.7823L267.605 32.8057L268.26 32.05ZM264.85 29.85L264.517 30.793L264.517 30.793L264.85 29.85ZM261.33 29.08L261.198 30.0712L261.231 30.0756L261.263 30.0778L261.33 29.08ZM245.93 28.86H244.93V29.86H245.93V28.86ZM245.93 16.65V15.65H244.93V16.65H245.93ZM270.46 18.08L270.182 19.0407L270.188 19.0423L270.46 18.08ZM279.37 22.7L278.732 23.4701L278.743 23.4788L279.37 22.7ZM285.53 30.95L284.613 31.3487L284.617 31.357L284.62 31.3653L285.53 30.95ZM283.99 58.12L283.151 57.5761L283.148 57.58L283.99 58.12ZM273.1 66.92L273.476 67.8465L273.484 67.8435L273.1 66.92ZM234.93 89.25H233.93V90.25H234.93V89.25ZM234.93 16.65V15.65H233.93V16.65H234.93ZM250.33 16.65H251.33V15.65H250.33V16.65ZM250.33 89.25V90.25H251.33V89.25H250.33ZM246.93 69.78V57.46H244.93V69.78H246.93ZM245.93 58.46H256.93V56.46H245.93V58.46ZM256.93 58.46C258.052 58.46 259.281 58.4226 260.615 58.3485L260.505 56.3515C259.199 56.424 258.008 56.46 256.93 56.46V58.46ZM260.615 58.3485C262.029 58.2699 263.436 57.9953 264.836 57.5287L264.204 55.6313C262.964 56.0447 261.731 56.2834 260.505 56.3515L260.615 58.3485ZM264.882 57.512C266.328 56.9498 267.645 56.1089 268.832 55.0011L267.468 53.5389C266.455 54.4844 265.352 55.1835 264.158 55.648L264.882 57.512ZM268.809 55.0226C270.138 53.8596 271.138 52.2725 271.841 50.3187L269.959 49.6413C269.342 51.3542 268.509 52.6271 267.491 53.5174L268.809 55.0226ZM271.841 50.3187C272.554 48.3386 272.89 45.8665 272.89 42.94H270.89C270.89 45.7335 270.566 47.9547 269.959 49.6413L271.841 50.3187ZM272.89 42.94C272.89 40.0858 272.554 37.6815 271.836 35.7689L269.964 36.4711C270.566 38.0785 270.89 40.2209 270.89 42.94H272.89ZM271.836 35.7689C271.134 33.8969 270.172 32.3842 268.915 31.2943L267.605 32.8057C268.548 33.6225 269.346 34.8231 269.964 36.4711L271.836 35.7689ZM268.967 31.3429C267.845 30.2211 266.584 29.4014 265.183 28.907L264.517 30.793C265.61 31.1786 266.621 31.8255 267.553 32.7571L268.967 31.3429ZM265.183 28.907C263.867 28.4425 262.603 28.1627 261.397 28.0822L261.263 30.0778C262.257 30.144 263.34 30.3775 264.517 30.793L265.183 28.907ZM261.462 28.0888C260.338 27.9389 259.374 27.86 258.58 27.86V29.86C259.253 29.86 260.122 29.9278 261.198 30.0712L261.462 28.0888ZM258.58 27.86H245.93V29.86H258.58V27.86ZM246.93 28.86V16.65H244.93V28.86H246.93ZM245.93 17.65H259.9V15.65H245.93V17.65ZM259.9 17.65C263.554 17.65 266.98 18.1156 270.182 19.0407L270.738 17.1193C267.34 16.1377 263.726 15.65 259.9 15.65V17.65ZM270.188 19.0423C273.434 19.9597 276.278 21.4368 278.732 23.47L280.008 21.93C277.329 19.7098 274.232 18.1069 270.732 17.1177L270.188 19.0423ZM278.743 23.4788C281.246 25.4955 283.205 28.1107 284.613 31.3487L286.447 30.5513C284.922 27.0426 282.774 24.1578 279.997 21.9212L278.743 23.4788ZM284.62 31.3653C286.086 34.5767 286.84 38.4973 286.84 43.16H288.84C288.84 38.2894 288.054 34.07 286.44 30.5347L284.62 31.3653ZM286.84 43.16C286.84 49.0329 285.587 53.8172 283.151 57.5761L284.829 58.6639C287.526 54.5028 288.84 49.3138 288.84 43.16H286.84ZM283.148 57.58C280.778 61.2753 277.318 64.0851 272.716 65.9965L273.484 67.8435C278.415 65.7949 282.216 62.7381 284.832 58.66L283.148 57.58ZM272.724 65.9935C268.18 67.8394 262.668 68.78 256.16 68.78V70.78C262.852 70.78 268.633 69.814 273.476 67.8465L272.724 65.9935ZM256.16 68.78H245.93V70.78H256.16V68.78ZM235.93 89.25V16.65H233.93V89.25H235.93ZM234.93 17.65H250.33V15.65H234.93V17.65ZM249.33 16.65V89.25H251.33V16.65H249.33ZM250.33 88.25H234.93V90.25H250.33V88.25ZM309.977 88.37L309.552 89.2752L309.563 89.2804L309.574 89.2853L309.977 88.37ZM300.957 81.11L300.157 81.71L300.163 81.7188L300.957 81.11ZM295.457 69.34L294.49 69.5967L294.491 69.6005L295.457 69.34ZM297.107 31.94L296.187 31.5461L296.185 31.5519L297.107 31.94ZM307.227 19.4L307.758 20.2472L307.762 20.2448L307.227 19.4ZM335.167 17.64L334.757 18.5523L334.768 18.5573L334.779 18.562L335.167 17.64ZM344.407 24.68L343.622 25.3003L343.629 25.3092L344.407 24.68ZM350.017 36.45L349.049 36.703L349.052 36.7119L349.054 36.7207L350.017 36.45ZM350.017 69.34L350.979 69.6107L350.98 69.6069L350.017 69.34ZM344.297 81.22L345.081 81.8403L345.088 81.8314L344.297 81.22ZM335.057 88.37L334.654 87.4547L334.647 87.4577L335.057 88.37ZM327.687 77.26L327.208 76.3821L327.199 76.3868L327.191 76.3918L327.687 77.26ZM331.977 73.08L331.145 72.5253L331.14 72.5328L331.977 73.08ZM335.057 65.38L336.031 65.6065L336.032 65.6016L335.057 65.38ZM334.397 39.2L333.434 39.4723L333.437 39.4807L333.439 39.489L334.397 39.2ZM329.667 30.51L330.347 29.7772L330.347 29.7772L329.667 30.51ZM318.007 28.86L318.437 29.7629L318.454 29.7547L318.471 29.7458L318.007 28.86ZM313.717 32.82L312.894 32.2508L312.89 32.2577L313.717 32.82ZM310.637 40.52L309.665 40.2825L309.663 40.2904L309.662 40.2984L310.637 40.52ZM310.637 65.38L309.66 65.5969L309.662 65.6016L310.637 65.38ZM313.607 73.19L312.76 73.7228L312.765 73.7301L312.77 73.7372L313.607 73.19ZM317.787 77.37L317.291 78.2382L317.315 78.252L317.339 78.2644L317.787 77.37ZM322.517 89.79C317.938 89.79 313.899 89.0034 310.379 87.4547L309.574 89.2853C313.387 90.9633 317.708 91.79 322.517 91.79V89.79ZM310.402 87.4648C306.953 85.8461 304.073 83.5279 301.75 80.5012L300.163 81.7188C302.681 84.9988 305.813 87.5205 309.552 89.2752L310.402 87.4648ZM301.757 80.51C299.426 77.402 297.642 73.5992 296.422 69.0795L294.491 69.6005C295.765 74.3208 297.648 78.3647 300.157 81.71L301.757 80.51ZM296.423 69.0833C295.203 64.4917 294.587 59.1908 294.587 53.17H292.587C292.587 59.3225 293.216 64.8016 294.49 69.5967L296.423 69.0833ZM294.587 53.17C294.587 44.6716 295.75 37.7385 298.028 32.3281L296.185 31.5519C293.77 37.2881 292.587 44.5084 292.587 53.17H294.587ZM298.026 32.3339C300.382 26.8356 303.636 22.832 307.758 20.2472L306.695 18.5528C302.164 21.3946 298.671 25.751 296.187 31.5461L298.026 32.3339ZM307.762 20.2448C311.978 17.5744 316.993 16.22 322.847 16.22V14.22C316.674 14.22 311.275 15.6522 306.692 18.5552L307.762 20.2448ZM322.847 16.22C327.35 16.22 331.313 17.0059 334.757 18.5523L335.576 16.7277C331.834 15.0474 327.584 14.22 322.847 14.22V16.22ZM334.779 18.562C338.289 20.0358 341.232 22.2779 343.622 25.3002L345.191 24.0598C342.594 20.7754 339.378 18.3242 335.554 16.718L334.779 18.562ZM343.629 25.3092C346.014 28.2553 347.83 32.0413 349.049 36.703L350.984 36.197C349.71 31.3253 347.786 27.2647 345.184 24.0508L343.629 25.3092ZM349.054 36.7207C350.343 41.3055 350.997 46.6741 350.997 52.84H352.997C352.997 46.5392 352.33 40.9812 350.979 36.1793L349.054 36.7207ZM350.997 52.84C350.997 59.0054 350.344 64.4125 349.053 69.0731L350.98 69.6069C352.33 64.7342 352.997 59.1413 352.997 52.84H350.997ZM349.054 69.0693C347.762 73.6627 345.907 77.5012 343.505 80.6086L345.088 81.8314C347.673 78.4855 349.631 74.404 350.979 69.6107L349.054 69.0693ZM343.512 80.5998C341.12 83.6255 338.171 85.9073 334.654 87.4547L335.459 89.2853C339.276 87.606 342.487 85.1211 345.081 81.8402L343.512 80.5998ZM334.647 87.4577C331.207 89.0024 327.171 89.79 322.517 89.79V91.79C327.395 91.79 331.72 90.9643 335.466 89.2823L334.647 87.4577ZM322.737 79.58C324.672 79.58 326.493 79.0939 328.183 78.1282L327.191 76.3918C325.8 77.1861 324.321 77.58 322.737 77.58V79.58ZM328.165 78.1379C329.954 77.1622 331.498 75.6394 332.814 73.6272L331.14 72.5328C329.962 74.3339 328.646 75.5978 327.208 76.3821L328.165 78.1379ZM332.809 73.6347C334.215 71.5258 335.279 68.8375 336.031 65.6065L334.083 65.1535C333.367 68.2292 332.379 70.6742 331.145 72.5253L332.809 73.6347ZM336.032 65.6016C336.786 62.2819 337.157 58.3537 337.157 53.83H335.157C335.157 58.253 334.794 62.0247 334.082 65.1584L336.032 65.6016ZM337.157 53.83C337.157 47.9049 336.565 42.9229 335.354 38.911L333.439 39.489C334.575 43.2504 335.157 48.0217 335.157 53.83H337.157ZM335.359 38.9277C334.23 34.9381 332.582 31.852 330.347 29.7772L328.986 31.2428C330.858 32.9813 332.364 35.6885 333.434 39.4723L335.359 38.9277ZM330.347 29.7772C328.115 27.705 325.491 26.65 322.517 26.65V28.65C324.969 28.65 327.111 29.5017 328.986 31.2428L330.347 29.7772ZM322.517 26.65C320.861 26.65 319.199 27.1064 317.543 27.9742L318.471 29.7458C319.894 29.0003 321.239 28.65 322.517 28.65V26.65ZM317.577 27.9571C315.832 28.7878 314.28 30.2501 312.894 32.2508L314.539 33.3892C315.794 31.5766 317.101 30.3989 318.437 29.7629L317.577 27.9571ZM312.89 32.2577C311.55 34.2279 310.487 36.9217 309.665 40.2825L311.608 40.7575C312.4 37.5183 313.39 35.0788 314.544 33.3823L312.89 32.2577ZM309.662 40.2984C308.905 43.6253 308.537 47.8502 308.537 52.95H310.537C310.537 47.9298 310.901 43.8681 311.612 40.7416L309.662 40.2984ZM308.537 52.95C308.537 57.9787 308.906 62.2008 309.66 65.5969L311.613 65.1631C310.901 61.9592 310.537 57.8947 310.537 52.95H308.537ZM309.662 65.6016C310.41 68.8966 311.434 71.6165 312.76 73.7228L314.453 72.6572C313.286 70.8035 312.33 68.3167 311.612 65.1584L309.662 65.6016ZM312.77 73.7372C314.079 75.7398 315.58 77.2606 317.291 78.2382L318.283 76.5018C316.914 75.7194 315.628 74.4535 314.444 72.6427L312.77 73.7372ZM317.339 78.2644C319.082 79.1356 320.884 79.58 322.737 79.58V77.58C321.216 77.58 319.718 77.2177 318.234 76.4756L317.339 78.2644ZM361.477 89.25H360.477V90.25H361.477V89.25ZM361.477 16.65V15.65H360.477V16.65H361.477ZM376.877 16.65H377.877V15.65H376.877V16.65ZM376.877 49.54H375.877V51.3391L377.405 50.3893L376.877 49.54ZM384.467 43.6L383.783 42.8711L383.777 42.8764L383.771 42.8818L384.467 43.6ZM390.957 36.01L391.783 36.5747L391.783 36.5747L390.957 36.01ZM395.687 26.99L394.762 26.6114L394.758 26.6204L394.754 26.6296L395.687 26.99ZM398.437 16.65V15.65H397.568L397.447 16.5113L398.437 16.65ZM415.817 16.65L416.801 16.8321L417.019 15.65H415.817V16.65ZM412.297 27.98L411.385 27.5704L411.381 27.5782L411.378 27.5861L412.297 27.98ZM406.467 37.99L405.672 37.384L405.667 37.39L405.663 37.3961L406.467 37.99ZM398.877 46.24L398.222 45.4849L398.212 45.4937L398.877 46.24ZM390.187 52.29L389.723 51.4042L389.187 51.6849V52.29H390.187ZM390.187 53.5H389.187V54.5H390.187V53.5ZM398.767 54.71L398.451 55.6587L398.468 55.6643L398.485 55.6694L398.767 54.71ZM405.147 58.12L404.489 58.8726L404.498 58.8805L404.507 58.8882L405.147 58.12ZM409.547 63.73L408.659 64.1887L408.665 64.2006L409.547 63.73ZM412.407 71.54L413.382 71.316L413.379 71.303L412.407 71.54ZM416.477 89.25V90.25H417.733L417.452 89.026L416.477 89.25ZM399.647 89.25L398.665 89.4382L398.821 90.25H399.647V89.25ZM397.117 76.05L396.134 76.2343L396.135 76.2382L397.117 76.05ZM394.697 67.36L393.775 67.7467L393.775 67.7467L394.697 67.36ZM390.297 62.3L389.812 63.1742L389.812 63.1742L390.297 62.3ZM376.877 60.65V59.65H375.877V60.65H376.877ZM376.877 89.25V90.25H377.877V89.25H376.877ZM362.477 89.25V16.65H360.477V89.25H362.477ZM361.477 17.65H376.877V15.65H361.477V17.65ZM375.877 16.65V49.54H377.877V16.65H375.877ZM377.405 50.3893C380.18 48.6642 382.766 46.64 385.163 44.3182L383.771 42.8818C381.475 45.1067 379.001 47.0425 376.349 48.6907L377.405 50.3893ZM385.152 44.3288C387.626 42.0052 389.836 39.42 391.783 36.5747L390.132 35.4453C388.265 38.1734 386.149 40.6481 383.783 42.8711L385.152 44.3288ZM391.783 36.5747C393.734 33.7228 395.346 30.6473 396.62 27.3504L394.754 26.6296C393.535 29.786 391.994 32.7239 390.132 35.4453L391.783 36.5747ZM396.613 27.3686C397.966 24.0604 398.903 20.5326 399.428 16.7886L397.447 16.5113C396.944 20.1007 396.048 23.4663 394.762 26.6114L396.613 27.3686ZM398.437 17.65H415.817V15.65H398.437V17.65ZM414.834 16.4679C414.115 20.3513 412.965 24.0514 411.385 27.5704L413.21 28.3896C414.856 24.7219 416.053 20.8687 416.801 16.8321L414.834 16.4679ZM411.378 27.5861C409.87 31.1046 407.968 34.3699 405.672 37.384L407.263 38.596C409.66 35.4501 411.644 32.042 413.216 28.3739L411.378 27.5861ZM405.663 37.3961C403.431 40.4193 400.951 43.1148 398.222 45.485L399.533 46.995C402.377 44.5252 404.957 41.7207 407.272 38.5839L405.663 37.3961ZM398.212 45.4937C395.557 47.8616 392.727 49.8306 389.723 51.4042L390.651 53.1758C393.807 51.5227 396.771 49.4584 399.543 46.9863L398.212 45.4937ZM389.187 52.29V53.5H391.187V52.29H389.187ZM390.187 54.5C393.41 54.5 396.158 54.8943 398.451 55.6587L399.083 53.7613C396.537 52.9124 393.565 52.5 390.187 52.5V54.5ZM398.485 55.6694C400.855 56.3664 402.849 57.4381 404.489 58.8726L405.806 57.3674C403.925 55.7219 401.666 54.5202 399.049 53.7506L398.485 55.6694ZM404.507 58.8882C406.153 60.2599 407.539 62.0202 408.659 64.1886L410.436 63.2714C409.208 60.8931 407.661 58.9135 405.787 57.3518L404.507 58.8882ZM408.665 64.2006C409.791 66.3115 410.718 68.8329 411.436 71.777L413.379 71.303C412.63 68.2337 411.65 65.5485 410.43 63.2594L408.665 64.2006ZM411.433 71.764L415.503 89.474L417.452 89.026L413.382 71.316L411.433 71.764ZM416.477 88.25H399.647V90.25H416.477V88.25ZM400.629 89.0618L398.099 75.8618L396.135 76.2382L398.665 89.4382L400.629 89.0618ZM398.1 75.8657C397.432 72.3045 396.609 69.3338 395.619 66.9733L393.775 67.7467C394.692 69.9329 395.482 72.7555 396.134 76.2343L398.1 75.8657ZM395.619 66.9733C394.588 64.5126 392.977 62.6446 390.783 61.4258L389.812 63.1742C391.578 64.1554 392.9 65.6608 393.775 67.7467L395.619 66.9733ZM390.783 61.4258C388.592 60.2085 385.611 59.65 381.937 59.65V61.65C385.451 61.65 388.043 62.1915 389.812 63.1742L390.783 61.4258ZM381.937 59.65H376.877V61.65H381.937V59.65ZM375.877 60.65V89.25H377.877V60.65H375.877ZM376.877 88.25H361.477V90.25H376.877V88.25ZM463.097 89.25H462.097V90.25H463.097V89.25ZM463.097 16.65V15.65H462.097V16.65H463.097ZM478.607 16.65H479.607V15.65H478.607V16.65ZM478.607 89.25V90.25H479.607V89.25H478.607ZM424.267 89.25H423.267V90.25H424.267V89.25ZM424.267 16.65V15.65H423.267V16.65H424.267ZM439.667 16.65H440.667V15.65H439.667V16.65ZM439.667 89.25V90.25H440.667V89.25H439.667ZM433.397 58.67H432.397V59.67H433.397V58.67ZM433.397 45.91V44.91H432.397V45.91H433.397ZM469.477 45.91H470.477V44.91H469.477V45.91ZM469.477 58.67V59.67H470.477V58.67H469.477ZM464.097 89.25V16.65H462.097V89.25H464.097ZM463.097 17.65H478.607V15.65H463.097V17.65ZM477.607 16.65V89.25H479.607V16.65H477.607ZM478.607 88.25H463.097V90.25H478.607V88.25ZM425.267 89.25V16.65H423.267V89.25H425.267ZM424.267 17.65H439.667V15.65H424.267V17.65ZM438.667 16.65V89.25H440.667V16.65H438.667ZM439.667 88.25H424.267V90.25H439.667V88.25ZM434.397 58.67V45.91H432.397V58.67H434.397ZM433.397 46.91H469.477V44.91H433.397V46.91ZM468.477 45.91V58.67H470.477V45.91H468.477ZM469.477 57.67H433.397V59.67H469.477V57.67ZM484.783 89.25L483.816 88.9937L483.483 90.25H484.783V89.25ZM504.033 16.65V15.65H503.264L503.066 16.3937L504.033 16.65ZM527.353 16.65L528.32 16.3951L528.124 15.65H527.353V16.65ZM546.493 89.25V90.25H547.791L547.46 88.9951L546.493 89.25ZM529.663 89.25L528.686 89.4656L528.86 90.25H529.663V89.25ZM516.353 28.97L517.329 28.7544L517.156 27.97H516.353V28.97ZM514.813 28.97V27.97H514.013L513.837 28.751L514.813 28.97ZM501.283 89.25V90.25H502.083L502.259 89.469L501.283 89.25ZM497.763 75.72H496.763V76.72H497.763V75.72ZM497.763 65.27V64.27H496.763V65.27H497.763ZM535.163 65.27H536.163V64.27H535.163V65.27ZM535.163 75.72V76.72H536.163V75.72H535.163ZM485.75 89.5063L505 16.9063L503.066 16.3937L483.816 88.9937L485.75 89.5063ZM504.033 17.65H527.353V15.65H504.033V17.65ZM526.386 16.9049L545.526 89.5049L547.46 88.9951L528.32 16.3951L526.386 16.9049ZM546.493 88.25H529.663V90.25H546.493V88.25ZM530.639 89.0344L517.329 28.7544L515.376 29.1856L528.686 89.4656L530.639 89.0344ZM516.353 27.97H514.813V29.97H516.353V27.97ZM513.837 28.751L500.307 89.031L502.259 89.469L515.789 29.189L513.837 28.751ZM501.283 88.25H484.783V90.25H501.283V88.25ZM498.763 75.72V65.27H496.763V75.72H498.763ZM497.763 66.27H535.163V64.27H497.763V66.27ZM534.163 65.27V75.72H536.163V65.27H534.163ZM535.163 74.72H497.763V76.72H535.163V74.72ZM552.748 89.25H551.748V90.25H552.748V89.25ZM552.748 16.65V15.65H551.748V16.65H552.748ZM585.528 17.31L585.359 18.2956L585.375 18.2983L585.391 18.3005L585.528 17.31ZM593.008 19.4L592.608 20.3162L592.62 20.3215L592.632 20.3265L593.008 19.4ZM599.278 23.36L598.601 24.0959L598.617 24.11L598.632 24.1234L599.278 23.36ZM603.788 29.52L602.873 29.9237L602.878 29.9338L603.788 29.52ZM604.448 44.92L605.397 45.2362L605.4 45.226L604.448 44.92ZM601.368 50.31L600.612 49.6564L600.612 49.6564L601.368 50.31ZM595.978 54.38L596.401 55.2862L596.413 55.2805L596.426 55.2744L595.978 54.38ZM588.058 56.69L587.894 55.7036L587.058 55.8429V56.69H588.058ZM588.058 58.01H587.058V58.9112L587.955 59.0046L588.058 58.01ZM596.308 60.76L595.713 61.5636L595.723 61.5708L595.733 61.5778L596.308 60.76ZM600.818 66.37L599.902 66.7708L599.91 66.7883L599.918 66.8056L600.818 66.37ZM603.678 74.51L604.648 74.2641L604.647 74.2622L603.678 74.51ZM607.418 89.25V90.25H608.704L608.388 89.0041L607.418 89.25ZM590.808 89.25L589.829 89.4523L589.994 90.25H590.808V89.25ZM588.058 75.94L589.038 75.7377L589.036 75.7304L589.035 75.7231L588.058 75.94ZM585.748 69.34L584.847 69.7727L584.857 69.7948L584.869 69.8163L585.748 69.34ZM582.118 65.27L581.592 66.1203L581.607 66.1295L581.622 66.1382L582.118 65.27ZM576.068 63.73L576.098 62.7304L576.083 62.73H576.068V63.73ZM568.148 63.73V62.73H567.148V63.73H568.148ZM568.148 89.25V90.25H569.148V89.25H568.148ZM568.148 52.62H567.148V53.62H568.148V52.62ZM582.888 51.52L583.221 52.463L583.236 52.4577L583.251 52.452L582.888 51.52ZM586.298 49.43L586.977 50.1648L586.979 50.1628L586.298 49.43ZM588.718 45.8L587.79 45.4286L587.79 45.4286L588.718 45.8ZM588.718 35.24L587.78 35.5857L587.788 35.6071L587.797 35.6281L588.718 35.24ZM586.518 31.94L585.84 32.6748L585.856 32.6894L585.872 32.7034L586.518 31.94ZM583.328 29.96L582.957 30.8885L582.967 30.8925L582.977 30.8963L583.328 29.96ZM579.918 29.08L580.042 28.0877L580.042 28.0877L579.918 29.08ZM568.148 28.86V27.86H567.148V28.86H568.148ZM553.748 89.25V16.65H551.748V89.25H553.748ZM552.748 17.65H577.938V15.65H552.748V17.65ZM577.938 17.65C580.373 17.65 582.846 17.8648 585.359 18.2956L585.697 16.3244C583.077 15.8752 580.491 15.65 577.938 15.65V17.65ZM585.391 18.3005C587.944 18.6551 590.348 19.3277 592.608 20.3162L593.409 18.4838C590.975 17.419 588.393 16.6983 585.666 16.3195L585.391 18.3005ZM592.632 20.3265C594.87 21.2355 596.857 22.4916 598.601 24.0959L599.955 22.6241C598.033 20.855 595.84 19.4711 593.385 18.4735L592.632 20.3265ZM598.632 24.1234C600.413 25.6301 601.829 27.5562 602.873 29.9236L604.703 29.1164C603.548 26.4971 601.957 24.3166 599.924 22.5966L598.632 24.1234ZM602.878 29.9338C603.904 32.1914 604.438 34.9755 604.438 38.32H606.438C606.438 34.7712 605.873 31.6886 604.699 29.1062L602.878 29.9338ZM604.438 38.32C604.438 40.5719 604.122 42.6679 603.496 44.614L605.4 45.226C606.095 43.0655 606.438 40.7614 606.438 38.32H604.438ZM603.5 44.6038C602.882 46.4572 601.921 48.1397 600.612 49.6564L602.125 50.9636C603.602 49.2536 604.695 47.3428 605.397 45.2362L603.5 44.6038ZM600.612 49.6564C599.317 51.1556 597.631 52.4356 595.531 53.4856L596.426 55.2744C598.726 54.1244 600.633 52.691 602.125 50.9636L600.612 49.6564ZM595.555 53.4738C593.457 54.453 590.909 55.2012 587.894 55.7036L588.223 57.6764C591.368 57.1522 594.1 56.3603 596.401 55.2862L595.555 53.4738ZM587.058 56.69V58.01H589.058V56.69H587.058ZM587.955 59.0046C591.37 59.3604 593.926 60.2401 595.713 61.5636L596.904 59.9564C594.73 58.3466 591.787 57.393 588.162 57.0154L587.955 59.0046ZM595.733 61.5778C597.555 62.8597 598.944 64.5816 599.902 66.7708L601.735 65.9692C600.639 63.4651 599.022 61.4469 596.884 59.9422L595.733 61.5778ZM599.918 66.8056C600.982 69.0044 601.915 71.6517 602.71 74.7578L604.647 74.2622C603.828 71.0616 602.855 68.2822 601.719 65.9344L599.918 66.8056ZM602.709 74.7559L606.449 89.4959L608.388 89.0041L604.648 74.2641L602.709 74.7559ZM607.418 88.25H590.808V90.25H607.418V88.25ZM591.788 89.0477L589.038 75.7377L587.079 76.1423L589.829 89.4523L591.788 89.0477ZM589.035 75.7231C588.434 73.022 587.638 70.7281 586.628 68.8637L584.869 69.8163C585.766 71.4719 586.509 73.578 587.082 76.1569L589.035 75.7231ZM586.65 68.9073C585.695 66.9187 584.356 65.3967 582.614 64.4018L581.622 66.1382C582.961 66.9033 584.041 68.0946 584.847 69.7727L586.65 68.9073ZM582.645 64.4197C580.909 63.3453 578.704 62.8071 576.098 62.7304L576.039 64.7296C578.42 64.7996 580.248 65.2881 581.592 66.1203L582.645 64.4197ZM576.068 62.73H568.148V64.73H576.068V62.73ZM567.148 63.73V89.25H569.148V63.73H567.148ZM568.148 88.25H552.748V90.25H568.148V88.25ZM568.148 53.62H575.078V51.62H568.148V53.62ZM575.078 53.62C576.435 53.62 577.792 53.5446 579.149 53.3939L578.928 51.4061C577.644 51.5487 576.361 51.62 575.078 51.62V53.62ZM579.149 53.3939C580.544 53.2388 581.902 52.9285 583.221 52.463L582.556 50.577C581.381 50.9915 580.172 51.2678 578.928 51.4061L579.149 53.3939ZM583.251 52.452C584.677 51.8975 585.923 51.1372 586.977 50.1648L585.62 48.6952C584.767 49.4828 583.74 50.1159 582.526 50.588L583.251 52.452ZM586.979 50.1628C588.127 49.0967 589.012 47.7578 589.647 46.1714L587.79 45.4286C587.251 46.7755 586.523 47.8567 585.618 48.6972L586.979 50.1628ZM589.647 46.1714C590.294 44.5534 590.598 42.6225 590.598 40.41H588.598C588.598 42.4509 588.316 44.1132 587.79 45.4286L589.647 46.1714ZM590.598 40.41C590.598 38.2683 590.293 36.4036 589.64 34.8519L587.797 35.6281C588.317 36.863 588.598 38.4451 588.598 40.41H590.598ZM589.657 34.8943C589.095 33.3695 588.272 32.1143 587.164 31.1766L585.872 32.7034C586.671 33.379 587.315 34.3238 587.78 35.5857L589.657 34.8943ZM587.197 31.2052C586.152 30.2407 584.978 29.5107 583.679 29.0237L582.977 30.8963C584.025 31.2893 584.978 31.8793 585.84 32.6748L587.197 31.2052ZM583.7 29.0315C582.521 28.5598 581.301 28.245 580.042 28.0877L579.794 30.0723C580.883 30.2083 581.936 30.4802 582.957 30.8885L583.7 29.0315ZM580.042 28.0877C578.834 27.9367 577.692 27.86 576.618 27.86V29.86C577.598 29.86 578.656 29.93 579.794 30.0723L580.042 28.0877ZM576.618 27.86H568.148V29.86H576.618V27.86ZM567.148 28.86V52.62H569.148V28.86H567.148ZM610.578 89.25L609.612 88.9937L609.279 90.25H610.578V89.25ZM629.828 16.65V15.65H629.059L628.862 16.3937L629.828 16.65ZM653.148 16.65L654.115 16.3951L653.919 15.65H653.148V16.65ZM672.288 89.25V90.25H673.586L673.255 88.9951L672.288 89.25ZM655.458 89.25L654.482 89.4656L654.655 90.25H655.458V89.25ZM642.148 28.97L643.125 28.7544L642.952 27.97H642.148V28.97ZM640.608 28.97V27.97H639.808L639.633 28.751L640.608 28.97ZM627.078 89.25V90.25H627.879L628.054 89.469L627.078 89.25ZM623.558 75.72H622.558V76.72H623.558V75.72ZM623.558 65.27V64.27H622.558V65.27H623.558ZM660.958 65.27H661.958V64.27H660.958V65.27ZM660.958 75.72V76.72H661.958V75.72H660.958ZM611.545 89.5063L630.795 16.9063L628.862 16.3937L609.612 88.9937L611.545 89.5063ZM629.828 17.65H653.148V15.65H629.828V17.65ZM652.181 16.9049L671.321 89.5049L673.255 88.9951L654.115 16.3951L652.181 16.9049ZM672.288 88.25H655.458V90.25H672.288V88.25ZM656.435 89.0344L643.125 28.7544L641.172 29.1856L654.482 89.4656L656.435 89.0344ZM642.148 27.97H640.608V29.97H642.148V27.97ZM639.633 28.751L626.103 89.031L628.054 89.469L641.584 29.189L639.633 28.751ZM627.078 88.25H610.578V90.25H627.078V88.25ZM624.558 75.72V65.27H622.558V75.72H624.558ZM623.558 66.27H660.958V64.27H623.558V66.27ZM659.958 65.27V75.72H661.958V65.27H659.958ZM660.958 74.72H623.558V76.72H660.958V74.72ZM715.95 89.25H714.95V90.25H715.95V89.25ZM715.95 66.26H716.95V66.0367L716.855 65.8346L715.95 66.26ZM692.63 16.65V15.65H691.055L691.725 17.0754L692.63 16.65ZM711.44 16.65L712.389 16.3363L712.162 15.65H711.44V16.65ZM723.76 53.94L722.81 54.2537L723.037 54.94H723.76V53.94ZM724.53 53.94V54.94H725.254L725.48 54.2512L724.53 53.94ZM736.74 16.65V15.65H736.015L735.789 16.3388L736.74 16.65ZM754.78 16.65L755.687 17.0696L756.344 15.65H754.78V16.65ZM731.9 66.15L730.992 65.7304L730.9 65.9301V66.15H731.9ZM731.9 89.25V90.25H732.9V89.25H731.9ZM716.95 89.25V66.26H714.95V89.25H716.95ZM716.855 65.8346L693.535 16.2246L691.725 17.0754L715.045 66.6854L716.855 65.8346ZM692.63 17.65H711.44V15.65H692.63V17.65ZM710.49 16.9637L722.81 54.2537L724.709 53.6263L712.389 16.3363L710.49 16.9637ZM723.76 54.94H724.53V52.94H723.76V54.94ZM725.48 54.2512L737.69 16.9612L735.789 16.3388L723.579 53.6288L725.48 54.2512ZM736.74 17.65H754.78V15.65H736.74V17.65ZM753.872 16.2304L730.992 65.7304L732.807 66.5696L755.687 17.0696L753.872 16.2304ZM730.9 66.15V89.25H732.9V66.15H730.9ZM731.9 88.25H715.95V90.25H731.9V88.25ZM770.726 88.37L770.301 89.2752L770.312 89.2804L770.324 89.2853L770.726 88.37ZM761.706 81.11L760.906 81.71L760.913 81.7188L761.706 81.11ZM756.206 69.34L755.24 69.5967L755.241 69.6005L756.206 69.34ZM757.856 31.94L756.937 31.5461L756.935 31.5519L757.856 31.94ZM767.976 19.4L768.508 20.2472L768.511 20.2448L767.976 19.4ZM795.916 17.64L795.507 18.5523L795.518 18.5573L795.529 18.562L795.916 17.64ZM805.156 24.68L804.372 25.3003L804.379 25.3092L805.156 24.68ZM810.766 36.45L809.799 36.703L809.801 36.7119L809.804 36.7207L810.766 36.45ZM810.766 69.34L811.729 69.6107L811.73 69.6069L810.766 69.34ZM805.046 81.22L805.831 81.8403L805.838 81.8314L805.046 81.22ZM795.806 88.37L795.404 87.4547L795.397 87.4577L795.806 88.37ZM788.436 77.26L787.957 76.3821L787.949 76.3868L787.94 76.3918L788.436 77.26ZM792.726 73.08L791.894 72.5253L791.889 72.5328L792.726 73.08ZM795.806 65.38L796.78 65.6065L796.781 65.6016L795.806 65.38ZM795.146 39.2L794.184 39.4723L794.186 39.4807L794.189 39.489L795.146 39.2ZM790.416 30.51L791.097 29.7772L791.097 29.7772L790.416 30.51ZM778.756 28.86L779.186 29.7629L779.203 29.7547L779.22 29.7458L778.756 28.86ZM774.466 32.82L773.644 32.2508L773.639 32.2577L774.466 32.82ZM771.386 40.52L770.415 40.2825L770.413 40.2904L770.411 40.2984L771.386 40.52ZM771.386 65.38L770.41 65.5969L770.411 65.6016L771.386 65.38ZM774.356 73.19L773.51 73.7228L773.515 73.7301L773.519 73.7372L774.356 73.19ZM778.536 77.37L778.04 78.2382L778.064 78.252L778.089 78.2644L778.536 77.37ZM783.266 89.79C778.688 89.79 774.649 89.0034 771.129 87.4547L770.324 89.2853C774.137 90.9633 778.458 91.79 783.266 91.79V89.79ZM771.151 87.4648C767.703 85.8461 764.822 83.5279 762.5 80.5012L760.913 81.7188C763.43 84.9988 766.563 87.5205 770.301 89.2752L771.151 87.4648ZM762.506 80.51C760.175 77.402 758.391 73.5992 757.172 69.0795L755.241 69.6005C756.515 74.3208 758.397 78.3647 760.906 81.71L762.506 80.51ZM757.173 69.0833C755.953 64.4917 755.336 59.1908 755.336 53.17H753.336C753.336 59.3225 753.966 64.8016 755.24 69.5967L757.173 69.0833ZM755.336 53.17C755.336 44.6716 756.5 37.7385 758.778 32.3281L756.935 31.5519C754.519 37.2881 753.336 44.5084 753.336 53.17H755.336ZM758.775 32.3339C761.132 26.8356 764.386 22.832 768.508 20.2472L767.445 18.5528C762.913 21.3946 759.421 25.751 756.937 31.5461L758.775 32.3339ZM768.511 20.2448C772.728 17.5744 777.742 16.22 783.596 16.22V14.22C777.423 14.22 772.025 15.6522 767.441 18.5552L768.511 20.2448ZM783.596 16.22C788.099 16.22 792.063 17.0059 795.507 18.5523L796.326 16.7277C792.583 15.0474 788.333 14.22 783.596 14.22V16.22ZM795.529 18.562C799.038 20.0358 801.982 22.2779 804.372 25.3002L805.941 24.0598C803.344 20.7754 800.128 18.3242 796.303 16.718L795.529 18.562ZM804.379 25.3092C806.764 28.2553 808.58 32.0413 809.799 36.703L811.734 36.197C810.46 31.3253 808.535 27.2647 805.934 24.0508L804.379 25.3092ZM809.804 36.7207C811.093 41.3055 811.746 46.6741 811.746 52.84H813.746C813.746 46.5392 813.079 40.9812 811.729 36.1793L809.804 36.7207ZM811.746 52.84C811.746 59.0054 811.093 64.4125 809.803 69.0731L811.73 69.6069C813.079 64.7342 813.746 59.1413 813.746 52.84H811.746ZM809.804 69.0693C808.512 73.6627 806.656 77.5012 804.255 80.6086L805.838 81.8314C808.423 78.4855 810.381 74.404 811.729 69.6107L809.804 69.0693ZM804.262 80.5998C801.869 83.6255 798.92 85.9073 795.404 87.4547L796.209 89.2853C800.026 87.606 803.236 85.1211 805.831 81.8402L804.262 80.5998ZM795.397 87.4577C791.956 89.0024 787.921 89.79 783.266 89.79V91.79C788.145 91.79 792.47 90.9643 796.216 89.2823L795.397 87.4577ZM783.486 79.58C785.422 79.58 787.243 79.0939 788.932 78.1282L787.94 76.3918C786.55 77.1861 785.071 77.58 783.486 77.58V79.58ZM788.915 78.1379C790.704 77.1622 792.248 75.6394 793.563 73.6272L791.889 72.5328C790.712 74.3339 789.395 75.5978 787.957 76.3821L788.915 78.1379ZM793.558 73.6347C794.964 71.5258 796.029 68.8375 796.78 65.6065L794.832 65.1535C794.117 68.2292 793.128 70.6742 791.894 72.5253L793.558 73.6347ZM796.781 65.6016C797.536 62.2819 797.906 58.3537 797.906 53.83H795.906C795.906 58.253 795.543 62.0247 794.831 65.1584L796.781 65.6016ZM797.906 53.83C797.906 47.9049 797.315 42.9229 796.104 38.911L794.189 39.489C795.324 43.2504 795.906 48.0217 795.906 53.83H797.906ZM796.108 38.9277C794.979 34.9381 793.331 31.852 791.097 29.7772L789.736 31.2428C791.608 32.9813 793.113 35.6885 794.184 39.4723L796.108 38.9277ZM791.097 29.7772C788.865 27.705 786.241 26.65 783.266 26.65V28.65C785.718 28.65 787.861 29.5017 789.736 31.2428L791.097 29.7772ZM783.266 26.65C781.611 26.65 779.949 27.1064 778.292 27.9742L779.22 29.7458C780.644 29.0003 781.989 28.65 783.266 28.65V26.65ZM778.326 27.9571C776.582 28.7878 775.029 30.2501 773.644 32.2508L775.288 33.3892C776.543 31.5766 777.851 30.3989 779.186 29.7629L778.326 27.9571ZM773.639 32.2577C772.3 34.2279 771.236 36.9217 770.415 40.2825L772.358 40.7575C773.149 37.5183 774.14 35.0788 775.293 33.3823L773.639 32.2577ZM770.411 40.2984C769.655 43.6253 769.286 47.8502 769.286 52.95H771.286C771.286 47.9298 771.651 43.8681 772.361 40.7416L770.411 40.2984ZM769.286 52.95C769.286 57.9787 769.655 62.2008 770.41 65.5969L772.362 65.1631C771.65 61.9592 771.286 57.8947 771.286 52.95H769.286ZM770.411 65.6016C771.16 68.8966 772.184 71.6165 773.51 73.7228L775.202 72.6572C774.035 70.8035 773.079 68.3167 772.361 65.1584L770.411 65.6016ZM773.519 73.7372C774.829 75.7398 776.329 77.2606 778.04 78.2382L779.032 76.5018C777.663 75.7194 776.377 74.4535 775.193 72.6427L773.519 73.7372ZM778.089 78.2644C779.831 79.1356 781.634 79.58 783.486 79.58V77.58C781.966 77.58 780.468 77.2177 778.983 76.4756L778.089 78.2644ZM831.907 86.17L831.288 86.9553L831.295 86.961L831.907 86.17ZM823.107 73.3L822.165 73.6348L822.169 73.6457L823.107 73.3ZM821.787 37.99L820.817 37.7474L820.814 37.7584L821.787 37.99ZM827.287 25.89L826.483 25.2956L827.287 25.89ZM836.747 18.08L837.18 18.9813L837.187 18.9778L836.747 18.08ZM862.487 17.2L862.108 18.1255L862.121 18.1307L862.133 18.1355L862.487 17.2ZM870.517 22.48L869.775 23.1503L869.78 23.1563L869.786 23.1623L870.517 22.48ZM874.917 30.18L873.959 30.4673L873.962 30.4783L873.966 30.4891L874.917 30.18ZM876.017 39.53L876.209 40.5114L876.964 40.3639L877.015 39.5965L876.017 39.53ZM861.387 42.39L860.387 42.3578L860.347 43.6122L861.579 43.3714L861.387 42.39ZM858.417 31.61L857.606 32.1955L857.625 32.2212L857.645 32.2457L858.417 31.61ZM854.787 28.64L854.359 29.5437L854.368 29.5479L854.377 29.5519L854.787 28.64ZM844.447 29.08L844.909 29.9666L844.924 29.9588L844.939 29.9506L844.447 29.08ZM839.937 33.37L839.105 32.8153L839.098 32.8261L839.091 32.8372L839.937 33.37ZM836.967 41.18L835.992 40.9584L835.989 40.969L835.987 40.9796L836.967 41.18ZM837.077 65.05L838.053 64.8331L838.053 64.8331L837.077 65.05ZM840.157 72.97L839.325 73.5247L839.33 73.532L839.335 73.5392L840.157 72.97ZM844.667 77.15L844.204 78.0366L844.227 78.0484L844.25 78.0591L844.667 77.15ZM856.547 76.71L857.077 77.558L857.086 77.5523L856.547 76.71ZM860.837 71.65L859.937 71.2144L859.931 71.2271L860.837 71.65ZM862.817 63.4L863.815 63.468L863.887 62.4H862.817V63.4ZM851.597 63.4H850.597V64.4H851.597V63.4ZM851.597 52.29V51.29H850.597V52.29H851.597ZM877.337 52.29H878.337V51.29H877.337V52.29ZM877.337 89.25V90.25H878.337V89.25H877.337ZM867.107 89.25L866.107 89.2279L866.085 90.25H867.107V89.25ZM867.547 69.34L868.547 69.3621L868.569 68.34H867.547V69.34ZM865.677 69.34V68.34H864.812L864.687 69.1963L865.677 69.34ZM862.377 81L863.275 81.4389L863.279 81.4307L862.377 81ZM855.997 88.26L856.518 89.1133L856.525 89.1093L855.997 88.26ZM845.767 89.68C840.614 89.68 836.214 88.2379 832.519 85.379L831.295 86.961C835.373 90.1155 840.213 91.68 845.767 91.68V89.68ZM832.526 85.3847C828.887 82.5154 826.049 78.3931 824.045 72.9543L822.169 73.6457C824.271 79.3536 827.3 83.8113 831.288 86.9553L832.526 85.3847ZM824.049 72.9652C822.117 67.5272 821.137 60.9731 821.137 53.28H819.137C819.137 61.1336 820.137 67.9261 822.165 73.6348L824.049 72.9652ZM821.137 53.28C821.137 47.7716 821.681 42.754 822.76 38.2216L820.814 37.7584C819.693 42.466 819.137 47.6417 819.137 53.28H821.137ZM822.757 38.2325C823.903 33.6469 825.687 29.7376 828.091 26.4844L826.483 25.2956C823.901 28.7891 822.017 32.9464 820.817 37.7475L822.757 38.2325ZM828.091 26.4844C830.487 23.2432 833.512 20.7447 837.18 18.9813L836.314 17.1787C832.355 19.082 829.074 21.7901 826.483 25.2956L828.091 26.4844ZM837.187 18.9778C840.905 17.154 845.439 16.22 850.827 16.22V14.22C845.214 14.22 840.362 15.1926 836.306 17.1822L837.187 18.9778ZM850.827 16.22C855.281 16.22 859.032 16.8672 862.108 18.1255L862.866 16.2744C859.488 14.8928 855.466 14.22 850.827 14.22V16.22ZM862.133 18.1355C865.307 19.3345 867.843 21.0117 869.775 23.1503L871.259 21.8097C869.084 19.4016 866.266 17.5589 862.84 16.2645L862.133 18.1355ZM869.786 23.1623C871.732 25.2478 873.122 27.6787 873.959 30.4673L875.875 29.8927C874.951 26.8147 873.408 24.1122 871.248 21.7977L869.786 23.1623ZM873.966 30.4891C874.877 33.2928 875.231 36.2812 875.019 39.4635L877.015 39.5965C877.243 36.1787 876.863 32.9339 875.868 29.8709L873.966 30.4891ZM875.825 38.5486L861.195 41.4086L861.579 43.3714L876.209 40.5114L875.825 38.5486ZM862.386 42.4222C862.462 40.0662 862.235 37.9088 861.69 35.9604L859.764 36.4996C860.245 38.2178 860.458 40.1671 860.387 42.3578L862.386 42.4222ZM861.69 35.9604C861.146 34.0167 860.318 32.3458 859.189 30.9743L857.645 32.2457C858.569 33.3675 859.281 34.7766 859.764 36.4996L861.69 35.9604ZM859.228 31.0245C858.173 29.5644 856.826 28.4609 855.197 27.7281L854.377 29.5519C855.681 30.1391 856.754 31.0156 857.606 32.1955L859.228 31.0245ZM855.215 27.7363C853.67 27.0045 851.944 26.65 850.057 26.65V28.65C851.69 28.65 853.117 28.9555 854.359 29.5437L855.215 27.7363ZM850.057 26.65C847.842 26.65 845.801 27.1661 843.955 28.2094L844.939 29.9506C846.466 29.0872 848.165 28.65 850.057 28.65V26.65ZM843.984 28.1934C842.116 29.1684 840.495 30.7299 839.105 32.8153L840.769 33.9247C842.019 32.0501 843.405 30.7516 844.909 29.9666L843.984 28.1934ZM839.091 32.8372C837.764 34.9435 836.741 37.6634 835.992 40.9584L837.942 41.4016C838.66 38.2433 839.616 35.7564 840.783 33.9028L839.091 32.8372ZM835.987 40.9796C835.31 44.2918 834.977 48.2494 834.977 52.84H836.977C836.977 48.3372 837.304 44.5216 837.947 41.3804L835.987 40.9796ZM834.977 52.84C834.977 57.7245 835.346 61.8725 836.101 65.2669L838.053 64.8331C837.341 61.6275 836.977 57.6355 836.977 52.84H834.977ZM836.101 65.2669C836.85 68.6408 837.914 71.4085 839.325 73.5247L840.989 72.4153C839.76 70.5715 838.77 68.0592 838.053 64.8331L836.101 65.2669ZM839.335 73.5392C840.727 75.5504 842.346 77.0668 844.204 78.0366L845.129 76.2634C843.615 75.4732 842.227 74.2029 840.979 72.4008L839.335 73.5392ZM844.25 78.0591C846.139 78.9247 848.114 79.36 850.167 79.36V77.36C848.406 77.36 846.715 76.9886 845.084 76.2409L844.25 78.0591ZM850.167 79.36C852.81 79.36 855.129 78.7757 857.077 77.558L856.017 75.862C854.445 76.8443 852.511 77.36 850.167 77.36V79.36ZM857.086 77.5523C859.097 76.2652 860.646 74.4242 861.743 72.0729L859.931 71.2271C858.975 73.2758 857.664 74.8081 856.008 75.8677L857.086 77.5523ZM861.737 72.0856C862.906 69.6697 863.588 66.788 863.815 63.468L861.819 63.332C861.606 66.4653 860.968 69.0836 859.937 71.2144L861.737 72.0856ZM862.817 62.4H851.597V64.4H862.817V62.4ZM852.597 63.4V52.29H850.597V63.4H852.597ZM851.597 53.29H877.337V51.29H851.597V53.29ZM876.337 52.29V64.61H878.337V52.29H876.337ZM876.337 64.61V89.25H878.337V64.61H876.337ZM877.337 88.25H867.107V90.25H877.337V88.25ZM868.107 89.2721L868.547 69.3621L866.547 69.3179L866.107 89.2279L868.107 89.2721ZM867.547 68.34H865.677V70.34H867.547V68.34ZM864.687 69.1963C864.038 73.6703 862.961 77.455 861.474 80.5693L863.279 81.4307C864.873 78.0917 865.996 74.103 866.667 69.4837L864.687 69.1963ZM861.478 80.5612C860.012 83.5628 858.007 85.833 855.469 87.4107L856.525 89.1093C859.413 87.3137 861.661 84.7439 863.275 81.4388L861.478 80.5612ZM855.475 87.4067C853.038 88.896 849.825 89.68 845.767 89.68V91.68C850.068 91.68 853.675 90.8506 856.518 89.1133L855.475 87.4067ZM882.957 89.25L881.991 88.9937L881.657 90.25H882.957V89.25ZM902.207 16.65V15.65H901.438L901.241 16.3937L902.207 16.65ZM925.527 16.65L926.494 16.3951L926.298 15.65H925.527V16.65ZM944.667 89.25V90.25H945.965L945.634 88.9951L944.667 89.25ZM927.837 89.25L926.861 89.4656L927.034 90.25H927.837V89.25ZM914.527 28.97L915.504 28.7544L915.33 27.97H914.527V28.97ZM912.987 28.97V27.97H912.187L912.011 28.751L912.987 28.97ZM899.457 89.25V90.25H900.258L900.433 89.469L899.457 89.25ZM895.937 75.72H894.937V76.72H895.937V75.72ZM895.937 65.27V64.27H894.937V65.27H895.937ZM933.337 65.27H934.337V64.27H933.337V65.27ZM933.337 75.72V76.72H934.337V75.72H933.337ZM883.924 89.5063L903.174 16.9063L901.241 16.3937L881.991 88.9937L883.924 89.5063ZM902.207 17.65H925.527V15.65H902.207V17.65ZM924.56 16.9049L943.7 89.5049L945.634 88.9951L926.494 16.3951L924.56 16.9049ZM944.667 88.25H927.837V90.25H944.667V88.25ZM928.814 89.0344L915.504 28.7544L913.551 29.1856L926.861 89.4656L928.814 89.0344ZM914.527 27.97H912.987V29.97H914.527V27.97ZM912.011 28.751L898.481 89.031L900.433 89.469L913.963 29.189L912.011 28.751ZM899.457 88.25H882.957V90.25H899.457V88.25ZM896.937 75.72V65.27H894.937V75.72H896.937ZM895.937 66.27H933.337V64.27H895.937V66.27ZM932.337 65.27V75.72H934.337V65.27H932.337ZM933.337 74.72H895.937V76.72H933.337V74.72Z" fill="#414142"/>
</svg>
