<svg width="18" height="18" viewBox="0 0 18 18" fill="none" xmlns="http://www.w3.org/2000/svg">
<path d="M16.0053 4.39238C15.4802 4.62173 14.924 4.77211 14.3548 4.83864C14.9522 4.48782 15.4015 3.93148 15.6186 3.27358C15.0526 3.60308 14.4352 3.83516 13.7922 3.96013C13.5215 3.67655 13.1958 3.45109 12.8351 3.29752C12.4744 3.14395 12.0861 3.06549 11.694 3.06691C10.1066 3.06691 8.81962 4.33494 8.81962 5.8972C8.81962 6.11857 8.84484 6.33505 8.89388 6.54172C7.75517 6.48756 6.64025 6.19662 5.62026 5.68747C4.60027 5.17833 3.69762 4.46215 2.96991 3.58463C2.71478 4.01506 2.58068 4.50642 2.58179 5.00678C2.58228 5.47473 2.69937 5.93519 2.92247 6.34653C3.14557 6.75788 3.46766 7.10715 3.85962 7.36278C3.40389 7.34807 2.95801 7.2264 2.55797 7.00759V7.04262C2.55797 8.41433 3.54927 9.55835 4.86283 9.81896C4.61596 9.88446 4.36164 9.91766 4.10622 9.91774C3.92057 9.91774 3.74053 9.90022 3.56469 9.8652C3.7525 10.4312 4.1119 10.9247 4.59299 11.2771C5.07407 11.6295 5.65296 11.8233 6.24925 11.8317C5.22647 12.6195 3.97089 13.0451 2.67987 13.0416C2.44728 13.0416 2.2189 13.0275 1.99402 13.0023C3.31196 13.8365 4.84013 14.2782 6.39987 14.276C11.687 14.276 14.5776 9.96257 14.5776 6.22226L14.5678 5.85586C15.1316 5.45911 15.6187 4.96324 16.0053 4.39238Z" fill="white"/>
</svg>
